<?xml version="1.0" encoding="UTF-8" standalone="no"?>
<!-- Created with Inkscape (http://www.inkscape.org/) -->

<svg
   width="256"
   height="191.99998"
   viewBox="0 0 67.733333 50.799998"
   version="1.1"
   id="svg5"
   xmlns="http://www.w3.org/2000/svg"
   xmlns:svg="http://www.w3.org/2000/svg">
  <defs
     id="defs2" />
  <rect
     style="fill:#ffccaa;fill-opacity:0.5;stroke:none;stroke-width:2.11667;stroke-linecap:round;stroke-miterlimit:4;stroke-dasharray:none;stroke-dashoffset:0;stroke-opacity:1"
     id="rect1933"
     width="67.733337"
     height="50.799995"
     x="0"
     y="0"
     ry="8.1190262"
     rx="8.5686417" />
  <g
     id="layer1"
     transform="matrix(0.15807195,0,0,0.15805275,11.025789,4.0968348)"
     style="fill:#333333;stroke-width:6.3266">
    <path
       style="fill:#333333;stroke-width:6.3266"
       d="m 150.75287,195.23386 c -21.52443,3.33469 -47.85524,1.74333 -62.091372,-17.11044 C 75.099905,158.56957 74.684685,133.96419 68.672029,111.70366 60.526748,111.24876 62.418904,127.94859 52.733123,129.68612 39.933436,139.36539 21.289091,132.9164 14.985998,118.77071 0.3572477,92.533466 13.106029,57.575886 38.052529,42.603786 c 25.511156,-15.988453 56.9715,-17.767322 86.199661,-15.03781 15.09038,-2.741878 26.6909,-14.900146 42.19565,-16.415034 25.65882,-6.1889224 55.41085,-7.8570704 77.98491,8.120147 16.66116,12.749353 25.15904,39.321257 11.72465,57.210237 -10.47533,11.57932 -30.28986,9.26712 -39.83708,-2.34941 -9.72123,-9.49104 -15.41644,-22.731191 -16.47057,-36.208018 13.78744,2.552363 14.68547,21.155218 26.01029,28.038508 8.30606,9.33868 27.66994,7.74517 26.36484,-7.50716 0.27253,-19.769347 -18.20419,-34.296369 -36.33891,-37.541282 -26.35491,-6.1476 -54.21272,0.666113 -77.36072,13.839038 -19.75725,8.363137 -41.470596,-2.642925 -61.593002,4.073006 -28.977001,6.34366 -56.396532,30.260408 -58.337438,61.183322 -1.168593,12.53301 11.437782,29.85807 24.788813,21.74885 10.427531,-6.56964 13.035374,-19.37361 17.154,-30.090864 -2.900437,-6.98388 11.149969,-22.21273 9.830063,-7.77013 -4.816126,19.171014 7.23075,36.450724 12.862031,53.896814 6.505968,18.67041 17.655753,38.8315 38.297443,44.10722 23.979,6.99765 51.17221,1.22713 71.17078,-13.38458 14.74229,-12.01411 20.16787,-31.74747 19.01091,-50.13637 -0.0318,-13.67251 -1.41497,-27.509164 1.28277,-41.031734 2.99382,26.413874 14.71979,53.412544 6.14242,79.916774 -11.38679,26.32995 -42.70998,34.14661 -68.38117,37.96855 z m 1.7626,-19.55141 c -13.30678,0.58403 -8.2936,-25.76108 -24.52837,-17.99937 -14.11247,0.92615 -28.997726,-8.14447 -31.741977,-22.5991 -3.534469,-4.09983 -5.083593,-24.26512 1.755844,-12.09469 5.067283,12.74788 17.129253,27.11385 32.333823,22.55679 10.65515,-1.59509 19.05037,-19.62307 3.22275,-19.50793 -9.86841,-2.07453 -24.28895,-8.07763 -21.58445,-20.53696 6.63375,-12.677724 22.4566,-16.774674 35.67394,-18.440684 11.42541,-0.66815 35.42757,2.16679 27.12234,18.795794 -1.07634,13.29052 -28.26553,13.95609 -18.41165,27.38539 13.01794,10.52826 33.37312,-0.15572 35.58075,-15.83189 1.76269,-4.39216 -2.78756,-23.463934 5.71537,-15.03111 2.63325,12.23372 3.8265,27.38862 -6.10518,36.91611 -7.35103,9.25774 -29.86378,7.96093 -23.79253,24.82115 -1.37747,6.7982 -7.89779,13.2043 -15.24066,11.5665 z m 8.60915,-59.61877 c 15.71897,-10.40783 -18.64715,-20.554354 -12.55565,-2.57534 1.58015,5.04301 9.09984,6.52154 12.55565,2.57534 z M 99.896311,86.755356 c -15.557906,2.38647 -19.320001,-24.55799 -3.958032,-27.24958 15.885561,-4.71947 24.948851,22.99797 7.690691,26.54703 l -1.2376,0.30418 z m 1.139909,-7.7721 c 10.25794,-12.37049 -20.15916,-12.81036 -9.002628,-0.36129 2.158125,2.54103 6.798375,3.16175 9.002628,0.36129 z m 69.51891,-6.11787 c -16.01278,0.14799 -15.71944,-27.964256 0.37537,-27.553171 16.25053,-2.630194 20.69925,25.785081 3.67397,27.249151 l -2.01525,0.28129 z m 3.29756,-8.14698 c 9.51881,-14.146038 -22.07212,-12.392794 -8.47744,0.47909 2.37937,1.98415 6.58388,2.44221 8.47744,-0.47909 z"
       id="path228" />
  </g>
  <path
     id="path8"
     style="font-size:12px;fill:#333333;fill-rule:evenodd;stroke:#000000;stroke-width:0.066146mm;stroke-linecap:round"
     d="m 46.165988,39.405118 a 0.16680553,0.16744129 0 0 0 -0.0191,0.0015 c -0.01565,0.0018 -0.03218,0.0058 -0.04911,0.01205 a 0.30649289,0.30766101 0 0 0 -0.04401,0.02088 1.5141945,1.5199655 0 0 0 -0.0076,0.0045 c -0.03672,0.02117 -0.06874,0.04166 -0.09617,0.06168 -0.09597,0.06425 -0.183237,0.156627 -0.261942,0.277087 a 1.282338,1.2872254 0 0 0 -0.05393,0.09091 c -0.02912,0.05378 -0.05702,0.113115 -0.08353,0.178132 a 2.6555344,2.6656554 0 0 0 -0.07249,0.20287 3.1981436,3.2103329 0 0 0 -0.04175,0.1436 c -0.02225,0.08378 -0.04301,0.174258 -0.06241,0.271305 a 6.4493772,6.4739577 0 0 0 -0.05204,0.297798 7.8976194,7.9277199 0 0 0 -0.02845,0.206562 c -0.02932,0.234388 -0.05318,0.50013 -0.07154,0.797345 -0.0059,0.05779 -0.0288,0.09686 -0.06912,0.11726 a 0.1591043,0.15971069 0 0 1 -0.05488,0.01525 186.60936,187.32058 0 0 1 -0.21297,0.01158 152.14287,152.72274 0 0 1 -0.199078,0.0106 9.1430901,9.1779371 0 0 1 -0.05311,0.0025 c -0.106462,0.0049 -0.202095,0.0074 -0.286917,0.0074 -0.03201,0 -0.06005,0.01013 -0.08402,0.0302 -0.02407,0.0201 -0.0441,0.04614 -0.06,0.07822 a 0.33615086,0.33743201 0 0 0 -0.01955,0.04835 0.42627171,0.42789636 0 0 0 -0.0147,0.06216 0.79011424,0.79312559 0 0 0 -0.0098,0.126412 0.63731842,0.63974742 0 0 0 0,0.0379 0.5359734,0.53801615 0 0 0 0.05487,0.211062 c 0.03737,0.07496 0.08685,0.115105 0.148178,0.120475 l 0.696085,-0.05622 c 0.06727,0 0.108737,0.02368 0.12464,0.07084 a 0.15558139,0.15617436 0 0 1 0.0073,0.04963 c -0.0054,0.0937 -0.0081,0.187403 -0.0081,0.281098 v 0.289122 a 73.17651,73.455407 0 0 0 0.0032,0.554645 56.051168,56.264798 0 0 0 0.0058,0.507573 36.587514,36.726961 0 0 0 0.0106,0.46469 28.330724,28.438701 0 0 0 0.01532,0.426787 21.893883,21.977327 0 0 0 0.02045,0.389513 16.406177,16.468706 0 0 0 0.02545,0.353215 12.092746,12.138835 0 0 0 0.0309,0.321895 9.3765851,9.4123221 0 0 0 0.03712,0.294587 c 0.0052,0.03427 0.01933,0.06235 0.04239,0.08401 a 0.16688746,0.16752353 0 0 0 0.04753,0.03052 0.39259931,0.39409561 0 0 0 0.08351,0.02555 0.50328408,0.50520225 0 0 0 0.09459,0.0085 0.92660641,0.93013799 0 0 0 0.09743,-0.0053 1.1897594,1.1942939 0 0 0 0.12657,-0.02072 1.1564146,1.1608221 0 0 0 0.0453,-0.01093 1.0081248,1.0119671 0 0 0 0.17663,-0.06329 0.67017155,0.6727258 0 0 0 0.07698,-0.04257 0.51114918,0.51309733 0 0 0 0.09105,-0.07404 0.27945664,0.28052171 0 0 0 0.0218,-0.02506 0.20482016,0.20560079 0 0 0 0.04433,-0.127538 0.86966639,0.87298097 0 0 0 -0.0032,-0.06361 c -0.0036,-0.04923 -0.01107,-0.1103 -0.02202,-0.182953 a 5.3216375,5.3419198 0 0 0 -0.0191,-0.116772 c -0.02934,-0.167335 -0.06195,-0.396203 -0.09793,-0.686673 a 13.475364,13.526723 0 0 1 -0.0328,-0.292177 c -0.0106,-0.10401 -0.02067,-0.21453 -0.03057,-0.33169 a 28.290334,28.398156 0 0 1 -0.03439,-0.4504 15.19782,15.255743 0 0 1 -0.01843,-0.3129 c -0.0171,-0.355655 -0.02561,-0.760063 -0.02561,-1.213043 0,-0.04495 0.0027,-0.08332 0.0081,-0.115005 a 0.30460854,0.30576951 0 0 1 0.0098,-0.04161 0.08282927,0.08314496 0 0 1 0.02976,-0.04176 c 0.0095,-0.0072 0.02093,-0.01305 0.0344,-0.01765 a 0.20949006,0.21028849 0 0 1 0.03794,-0.0088 l 1.064125,-0.11243 v 0 c 0.03996,-0.0053 0.07317,-0.02212 0.09984,-0.05027 a 0.31230979,0.31350009 0 0 0 0.03041,-0.0371 0.37269076,0.37411121 0 0 0 0.03583,-0.06522 0.49222383,0.49409983 0 0 0 0.0207,-0.05798 0.62887982,0.63127665 0 0 0 0.01753,-0.07855 1.0397491,1.0437119 0 0 0 0.0032,-0.01913 0.93660164,0.94017131 0 0 0 0.0092,-0.12947 c 0,-0.04534 -0.0033,-0.08703 -0.01028,-0.1248 a 0.44986698,0.45158158 0 0 0 -0.02383,-0.0861 0.24570226,0.24663871 0 0 0 -0.0031,-0.0062 c -0.02273,-0.0534 -0.05725,-0.07999 -0.103522,-0.07999 -0.06664,0 -0.142675,0.008 -0.228003,0.02407 a 37.806606,37.950698 0 0 1 -0.132037,0.02457 45.023403,45.194998 0 0 1 -0.140005,0.02554 9.9459029,9.9838099 0 0 1 -0.07281,0.01302 11.364406,11.407719 0 0 1 -0.229155,0.03726 2.0885103,2.0964702 0 0 1 -0.31409,0.0241 c -0.02202,0 -0.04029,-0.0031 -0.05473,-0.0093 a 0.06382196,0.06406521 0 0 1 -0.02738,-0.02087 0.07750395,0.07779934 0 0 1 -0.0036,-0.0058 c -0.0086,-0.0139 -0.01375,-0.03235 -0.0164,-0.0551 a 0.29600611,0.29713426 0 0 1 -0.0031,-0.03341 8.5378874,8.5704279 0 0 1 0.01455,-0.187285 c 0.01755,-0.19672 0.04072,-0.369842 0.06927,-0.519465 a 3.8624983,3.8772196 0 0 1 0.0164,-0.08079 c 0.01687,-0.07912 0.0353,-0.15322 0.05551,-0.222313 a 2.1297201,2.137837 0 0 1 0.06816,-0.198847 1.538609,1.5444731 0 0 1 0.08051,-0.170428 1.1681304,1.1725824 0 0 1 0.123532,-0.182952 1.6007924,1.6068936 0 0 1 0.27601,-0.261013 0.26905176,0.27007719 0 0 0 0.01687,-0.01528 0.21751901,0.21834804 0 0 0 0.0232,-0.02698 c 0.0068,-0.0094 0.01138,-0.02078 0.0139,-0.03406 a 0.13190418,0.13240691 0 0 0 0.0032,-0.0241 0.32935081,0.33060609 0 0 0 -0.0189,-0.109065 0.44126456,0.44294636 0 0 0 -0.04096,-0.08578 0.67099082,0.67354817 0 0 0 -0.01532,-0.02425 0.71793565,0.7206719 0 0 0 -0.13858,-0.152433 c -0.06273,-0.0522 -0.13071,-0.095 -0.204025,-0.1285 a 0.60708695,0.60940075 0 0 0 -0.09105,-0.03342 0.45044051,0.45215726 0 0 0 -0.1189,-0.0167 z m 17.797117,0.626275 a 2.4070466,2.4162205 0 0 0 -1.93153,0.896298 3.7820451,3.7964598 0 0 0 -0.520545,0.838462 0.6367449,0.63917175 0 0 0 -0.01375,0.03389 c -0.01753,0.04797 -0.02623,0.09155 -0.02623,0.130745 0,0.115087 0.07056,0.204795 0.211833,0.26905 l 0.204212,0.08433 a 0.48689851,0.48875421 0 0 0 0.04719,0.01622 0.39538486,0.39689178 0 0 0 0.108818,0.0159 0.25176494,0.25272449 0 0 0 0.137757,-0.0379 c 0.0335,-0.02133 0.06271,-0.05156 0.08738,-0.09075 a 0.49066718,0.49253726 0 0 0 0.04689,-0.100235 c 0.10613,-0.267003 0.224904,-0.49239 0.356357,-0.676395 a 1.7666968,1.7734303 0 0 1 0.28769,-0.319478 1.3265792,1.3316352 0 0 1 0.888097,-0.321092 1.179928,1.1844251 0 0 1 0.01797,0 1.0433539,1.0473304 0 0 1 0.344028,0.06216 1.0581829,1.0622159 0 0 1 0.0469,0.01845 0.91226901,0.91574594 0 0 1 0.249137,0.1542 0.83574817,0.83893347 0 0 1 0.200025,0.258935 0.70564642,0.70833585 0 0 1 0.07407,0.321247 0.92201841,0.92553254 0 0 1 0,0.01028 0.81411917,0.81722202 0 0 1 -0.05808,0.298925 c -0.03866,0.09639 -0.102555,0.188858 -0.19185,0.277243 -0.0531,0.05241 -0.116072,0.104262 -0.188817,0.155805 a 2.3388004,2.3477143 0 0 1 -0.163225,0.105052 2.4665262,2.4759269 0 0 1 -0.08465,0.0477 c -0.06472,0.03476 -0.135247,0.06929 -0.211705,0.103608 a 4.8492401,4.8677223 0 0 1 -0.245772,0.101837 0.657145,0.6596496 0 0 0 -0.04545,0.0196 c -0.02382,0.01155 -0.04518,0.02403 -0.06418,0.03726 a 0.31616039,0.31736536 0 0 0 -0.05841,0.0514 0.26651199,0.26752776 0 0 0 -0.01752,0.0225 0.20088761,0.20165326 0 0 0 -0.03855,0.118065 0.20744186,0.20823248 0 0 0 0.0128,0.07132 c 0.009,0.02473 0.02248,0.04922 0.04064,0.07356 a 0.45117783,0.45289741 0 0 0 0.05457,0.05991 l 0.04802,0.04819 c 0.08803,0.08832 0.186668,0.132513 0.296005,0.132513 a 0.46502368,0.46679603 0 0 0 0.148018,-0.0241 3.5279044,3.5413501 0 0 0 0.230422,-0.08578 2.9173764,2.9284954 0 0 0 0.435553,-0.223432 2.5908111,2.6006856 0 0 0 0.183235,-0.125925 2.1131706,2.1212245 0 0 0 0.312982,-0.287685 1.9272758,1.9346211 0 0 0 0.0189,-0.02153 1.7077905,1.7142994 0 0 0 0.291218,-0.47432 c 0.07203,-0.178025 0.10801,-0.364705 0.10801,-0.560105 a 1.6596987,1.6660244 0 0 0 -0.003,-0.100555 1.4089989,1.414369 0 0 0 -0.11906,-0.497933 1.3957265,1.401046 0 0 0 -0.3381,-0.469832 1.4493894,1.4549134 0 0 0 -0.142915,-0.114528 1.6243878,1.6305787 0 0 0 -0.371058,-0.19259 c -0.198683,-0.07362 -0.41676,-0.1105 -0.654135,-0.1105 z m -11.640987,0.0082 c -0.123613,0 -0.223815,0.01305 -0.300495,0.03903 a 0.36179434,0.36317324 0 0 0 -0.09552,0.04738 h 0.0041 a 0.25242039,0.25338241 0 0 0 -0.07616,0.08802 c -0.02923,0.05494 -0.04385,0.12526 -0.04385,0.211063 a 0.07004849,0.07031547 0 0 0 0,0.0058 c 0.0023,0.0187 0.01,0.06487 0.02383,0.13878 a 215.18577,216.00592 0 0 0 0.01217,0.06345 c 0.0097,0.05027 0.0209,0.10868 0.03392,0.175245 a 753.85207,756.72524 0 0 0 0.01977,0.1028 163.56389,164.18728 0 0 1 0.02784,0.143922 c 0.0216,0.11173 0.0456,0.237033 0.07217,0.376018 0.03868,0.202087 0.07929,0.42626 0.121938,0.672545 a 0.16852603,0.16916833 0 0 1 0.0048,0.01638 0.1351813,0.13569652 0 0 1 0.0036,0.02988 v 0.04224 c 0,0.06157 -0.01532,0.1077 -0.04609,0.138457 -0.03062,0.03081 -0.07271,0.0528 -0.126062,0.06618 a 9.7142924,9.7513166 0 0 0 -0.333975,0.06682 7.0781752,7.1051525 0 0 0 -0.298108,0.0718 c -0.128292,0.03405 -0.238972,0.06713 -0.33203,0.09926 a 2.3420776,2.3510039 0 0 0 -0.115852,0.04321 0.37342811,0.37485139 0 0 0 -0.05362,0.02923 0.27667109,0.27772556 0 0 0 -0.06046,0.05317 c -0.0054,0.0064 -0.0095,0.01345 -0.01422,0.02007 0.02859,0.09029 0.04462,0.18426 0.04462,0.282857 a 0.72997905,0.73276122 0 0 1 -0.02768,0.204155 0.65009917,0.6525769 0 0 1 -0.02752,0.07373 c 0.01152,0.01013 0.02385,0.01853 0.03775,0.02425 a 0.1611525,0.16176671 0 0 0 0.06161,0.0114 c 0.04534,0 0.09598,-0.0048 0.152003,-0.0141 0.056,-0.0094 0.120055,-0.02605 0.192042,-0.05012 a 5.3239315,5.3442225 0 0 1 0.148003,-0.04707 6.328861,6.3529822 0 0 1 0.264042,-0.07341 16.300654,16.362781 0 0 1 0.227055,-0.05637 19.317737,19.391362 0 0 1 0.241138,-0.05606 c 0.0049,0 0.01043,-10e-4 0.01642,-0.0015 a 0.15787538,0.15847709 0 0 0 0.01138,-0.0025 0.16926338,0.16990849 0 0 1 0.007,-0.0015 c 0.0079,-0.0015 0.01485,-0.0025 0.02112,-0.0025 0.09601,0 0.156032,0.0577 0.180027,0.172837 a 28.672856,28.782139 0 0 1 0.12001,0.957648 c 0.03466,0.319915 0.06,0.637882 0.076,0.953797 a 0.55530843,0.55742488 0 0 0 0.0063,0.05799 c 0.0048,0.02944 0.0117,0.05614 0.0209,0.07999 a 0.24037694,0.24129308 0 0 0 0.05281,0.08273 0.21235754,0.2131669 0 0 0 0.06544,0.04417 c 0.0225,0.01 0.04802,0.01735 0.0765,0.022 a 0.50893713,0.51087685 0 0 0 0.08209,0.0061 1.7275351,1.7341194 0 0 0 0.07776,-0.0015 c 0.03623,-0.0015 0.06988,-0.0046 0.101135,-0.0087 a 0.79003232,0.79304337 0 0 0 0.08722,-0.0159 0.44536096,0.44705836 0 0 0 0.07982,-0.02747 0.32009294,0.32131291 0 0 0 0.09009,-0.06087 0.32099414,0.32221756 0 0 0 0.05506,-0.07116 0.39604028,0.39754971 0 0 0 0.03696,-0.0893 0.59594475,0.59821608 0 0 0 0.01185,-0.04883 c 0.0057,-0.02846 0.0097,-0.05924 0.01233,-0.09236 a 1.2328535,1.2375523 0 0 0 0.0041,-0.10184 0.44372241,0.44541356 0 0 0 0,-0.0164 c -0.0023,-0.02867 -0.0055,-0.07199 -0.0106,-0.130105 a 6.816087,6.8420652 0 0 0 -0.0069,-0.06441 c -0.01185,-0.10576 -0.02796,-0.238283 -0.04799,-0.39755 -0.01122,-0.08959 -0.02375,-0.186045 -0.03762,-0.289608 a 56.945165,57.162203 0 0 0 -0.0344,-0.254437 c -0.02801,-0.203463 -0.0579,-0.421638 -0.08993,-0.654543 a 0.09012087,0.09046435 0 0 0 0,-0.008 c 0,-0.0064 -0.0023,-0.01383 -0.0038,-0.02215 -0.0027,-0.01207 -0.0041,-0.02213 -0.0041,-0.0302 a 0.24316249,0.24408927 0 0 1 0,-0.0257 c 0.0069,-0.06662 0.04247,-0.112393 0.106412,-0.13718 a 0.31624234,0.31744764 0 0 1 0.07232,-0.01782 c 0.234642,-0.02405 0.470092,-0.0434 0.706155,-0.05814 a 11.316887,11.36002 0 0 1 0.702015,-0.022 c 0.02285,0 0.04432,-0.0029 0.06479,-0.0077 a 1.9056468,1.9129097 0 0 1 0.163858,-0.33989 1.6656795,1.6720279 0 0 1 0.06895,-0.09316 c -0.0022,-0.01568 -0.0022,-0.03172 -0.0036,-0.04722 a 0.40202101,0.40355323 0 0 0 -0.0031,-0.01845 0.34786659,0.34919241 0 0 0 -0.03682,-0.101995 c -0.02,-0.03614 -0.04744,-0.0656 -0.0821,-0.08835 a 0.1763092,0.17698117 0 0 0 -0.03182,-0.0164 c -0.01598,-0.0063 -0.03332,-0.01087 -0.0525,-0.0138 a 0.36982329,0.37123279 0 0 0 -0.05569,-0.0039 2.6730669,2.6832546 0 0 0 -0.03215,0 c -0.0329,10e-4 -0.06778,0.0015 -0.10466,0.003 a 4.7703433,4.7885246 0 0 0 -0.121302,0.0069 c -0.09732,0.0067 -0.199993,0.01472 -0.30802,0.0241 -0.107978,0.0094 -0.21599,0.01938 -0.324033,0.03003 a 277.82479,278.88366 0 0 0 -0.15649,0.01557 223.27683,224.12781 0 0 0 -0.145457,0.01463 174.59247,175.2579 0 0 1 -0.08386,0.0084 c -0.05869,0.0058 -0.11133,0.01098 -0.158087,0.01558 a 4.5708486,4.5882696 0 0 1 -0.0158,0.0015 c -0.05982,0.0057 -0.103268,0.0085 -0.130253,0.0085 a 0.24840591,0.24935264 0 0 1 -0.04594,-0.004 c -0.08114,-0.01528 -0.128497,-0.07421 -0.142075,-0.176692 -0.04273,-0.267718 -0.08342,-0.534078 -0.12211,-0.799113 a 49.335853,49.523888 0 0 1 -0.01423,-0.09911 44.811703,44.982493 0 0 1 -0.09152,-0.671895 1.5546669,1.5605923 0 0 0 -0.01075,-0.05846 c -0.0057,-0.02714 -0.0117,-0.05241 -0.0182,-0.07565 a 0.7227694,0.7255241 0 0 0 -0.02112,-0.06473 0.40939451,0.41095486 0 0 0 -0.02784,-0.05911 0.30411699,0.30527604 0 0 0 -0.05218,-0.06731 0.26552884,0.26654086 0 0 0 -0.11985,-0.06617 0.47280683,0.47460886 0 0 0 -0.03455,-0.0076 c -0.03934,-0.0071 -0.08446,-0.0106 -0.13553,-0.0106 z m 2.681722,2.321998 c 0.0027,0.02899 0.0063,0.05784 0.0063,0.08738 a 0.36040156,0.36177516 0 0 1 -0.01075,0.08658 0.43806936,0.43973898 0 0 1 -0.01107,0.03774 c -0.01455,0.04288 -0.03467,0.08108 -0.06001,0.114528 -0.02535,0.03345 -0.05678,0.06097 -0.09408,0.08241 -0.01955,0.0112 -0.04073,0.01908 -0.06321,0.02443 a 1.9056468,1.9129097 0 0 0 -0.03072,0.06392 1.9993725,2.0069927 0 0 0 -0.07409,0.273382 2.3705065,2.3795414 0 0 0 -0.04385,0.465498 2.3522367,2.3612017 0 0 0 0.01122,0.235477 1.899666,1.9069063 0 0 0 0.09475,0.439148 1.7939788,1.8008162 0 0 0 0.0523,0.133797 1.497645,1.503353 0 0 0 0.245645,0.39032 1.3632011,1.3683966 0 0 0 0.456037,0.34133 1.280126,1.2850049 0 0 0 0.178905,0.06714 1.4262857,1.4317217 0 0 0 0.40114,0.05526 c 0.157375,0 0.319448,-0.0241 0.486135,-0.07228 a 2.4211381,2.4303659 0 0 0 0.136985,-0.04401 2.0476281,2.0554322 0 0 0 0.316998,-0.142637 1.5924358,1.5985051 0 0 0 0.175032,-0.11308 1.1711617,1.1756253 0 0 0 0.159068,-0.141995 c 0.08666,-0.0937 0.129935,-0.184738 0.129935,-0.273063 0,-0.0375 -0.0085,-0.07499 -0.02593,-0.11244 -0.0173,-0.0375 -0.03868,-0.07156 -0.064,-0.102315 a 0.35605936,0.35741641 0 0 0 -0.08577,-0.07598 0.21956721,0.22040406 0 0 0 -0.03297,-0.01702 0.16492119,0.16554976 0 0 0 -0.06304,-0.013 0.26487344,0.26588294 0 0 0 -0.09761,0.01912 0.34630994,0.34762981 0 0 0 -0.07424,0.04112 35.594796,35.730459 0 0 1 -0.08866,0.06312 47.312473,47.492796 0 0 1 -0.09744,0.0694 1.224333,1.2289993 0 0 1 -0.09633,0.06151 1.5622863,1.5682406 0 0 1 -0.139705,0.071 0.57800253,0.58020545 0 0 1 -0.0304,0.0127 c -0.08295,0.03169 -0.180013,0.04754 -0.29139,0.04754 a 0.97043791,0.97413656 0 0 1 -0.107835,-0.0059 0.68311622,0.68571977 0 0 1 -0.500378,-0.28928 0.95970534,0.96336309 0 0 1 -0.12769,-0.254435 c -0.02907,-0.08559 -0.05062,-0.180667 -0.06467,-0.28511 a 2.3749308,2.3839822 0 0 1 -0.01955,-0.31772 1.6812458,1.6876536 0 0 1 0.0059,-0.143277 1.3659866,1.3711928 0 0 1 0.03617,-0.220053 c 0.02798,-0.11114 0.06788,-0.207647 0.11985,-0.289287 a 0.66902455,0.6715744 0 0 1 0.01642,-0.02425 0.56604103,0.56819838 0 0 1 0.177785,-0.166413 0.48493221,0.48678043 0 0 1 0.08111,-0.03807 0.52417575,0.52617355 0 0 1 0.178908,-0.0302 0.553506,0.55561558 0 0 1 0.08624,0.0066 0.41873433,0.42033023 0 0 1 0.167715,0.06361 1.2256439,1.2303152 0 0 1 0.192168,0.156608 c 0.05735,0.05757 0.111315,0.10989 0.161945,0.15677 a 0.31394836,0.31514491 0 0 0 0.02719,0.0225 0.23357691,0.23446715 0 0 0 0.14081,0.0477 c 0.056,0 0.109352,-0.0128 0.160015,-0.03822 a 0.49812263,0.50002113 0 0 0 0.136022,-0.100237 0.48599728,0.48784958 0 0 0 0.09601,-0.14456 0.41865243,0.42024803 0 0 0 0.03599,-0.170748 0.41267166,0.41424448 0 0 0 -0.0291,-0.151625 0.53785773,0.53990765 0 0 0 -0.06273,-0.115327 0.84287592,0.84608839 0 0 0 -0.08803,-0.10521 1.02279,1.0266881 0 0 0 -0.154087,-0.127703 1.1456001,1.1499664 0 0 0 -0.124183,-0.07356 1.3722131,1.3774431 0 0 0 -0.221775,-0.08915 v 0 a 1.3726228,1.3778543 0 0 0 -0.404047,-0.06007 1.6520795,1.6583761 0 0 0 -0.04239,10e-4 1.4239917,1.4294189 0 0 0 -0.585673,0.13814 1.5017414,1.507465 0 0 0 -0.498132,0.3855 1.6656795,1.6720279 0 0 0 -0.06448,0.08722 z m -4.26475,0.979332 c -0.0097,-0.0085 -0.01865,-0.0182 -0.02657,-0.02987 a 0.19654542,0.19729451 0 0 1 -0.01028,-0.01687 0.34442559,0.34573831 0 0 1 -0.03152,-0.08642 c -0.0059,-0.02703 -0.0097,-0.05633 -0.0117,-0.08787 a 0.65313052,0.6556198 0 0 1 0,-0.03261 0.5929134,0.59517315 0 0 1 0.0032,-0.04127 c 0,-0.01415 0.0023,-0.02912 0.0043,-0.04498 a 1.0801396,1.0842564 0 0 1 0.0032,-0.01605 0.52819023,0.53020333 0 0 1 0.02736,-0.109068 0.5835736,0.58579775 0 0 1 0.0031,-0.0074 c 0.0117,-0.03135 0.0292,-0.06051 0.04975,-0.08835 -0.0173,-0.0543 -0.0379,-0.10757 -0.06544,-0.158862 a 1.1054554,1.1096686 0 0 0 -0.02135,-0.03791 1.1526459,1.157039 0 0 0 -0.280655,-0.319323 1.3351817,1.3402704 0 0 0 -0.14658,-0.1012 1.5516356,1.5575494 0 0 0 -0.303387,-0.137817 1.6087395,1.614871 0 0 0 -0.148178,-0.04176 1.8056127,1.8124944 0 0 0 -0.40596,-0.04449 c -0.189355,0 -0.375327,0.03007 -0.557962,0.09027 -0.182715,0.06025 -0.354098,0.144588 -0.514145,0.25298 a 2.0971127,2.1051054 0 0 0 -0.432043,0.391448 c -0.128037,0.15258 -0.233345,0.321255 -0.316032,0.505967 a 0.33664241,0.33792544 0 0 1 -0.01888,0.03711 c -0.04696,0.07972 -0.119423,0.119668 -0.217318,0.119668 h -0.05985 a 0.41635841,0.41794528 0 0 0 -0.04255,0.002 c -0.02395,0.0025 -0.04554,0.0071 -0.06497,0.01395 a 0.17811161,0.17879044 0 0 0 -0.07455,0.04818 0.19031889,0.19104425 0 0 0 -0.0081,0.0097 c -0.03428,0.04331 -0.05771,0.1097 -0.0701,0.199177 l -0.008,0.08047 v 0 c -0.0054,0.0107 -0.0081,0.03478 -0.0081,0.07228 a 0.45502848,0.45676273 0 0 0 0,0.0061 c 0,0.03032 0.0038,0.0582 0.01028,0.08369 a 0.23218412,0.23306906 0 0 0 0.06962,0.119025 0.24332636,0.24425374 0 0 0 0.0512,0.03517 c 0.02587,0.01347 0.05521,0.0233 0.088,0.02939 a 0.48804548,0.48990556 0 0 0 0.08898,0.0076 0.22603953,0.22690102 0 0 1 0.02784,0.002 c 0.01232,0.0015 0.02355,0.0041 0.03345,0.0079 a 0.09003894,0.09038211 0 0 1 0.0365,0.02457 c 0.01533,0.01738 0.03168,0.05011 0.04943,0.09815 a 1.2023763,1.2069589 0 0 1 0.0164,0.0485 1.3750806,1.3803215 0 0 0 0.215878,0.483803 1.4797028,1.4853424 0 0 0 0.37411,0.367352 1.6002189,1.6063179 0 0 0 0.14481,0.08866 1.8261766,1.8331366 0 0 0 0.36132,0.146328 1.9954399,2.0030452 0 0 0 0.165122,0.04016 2.2712097,2.2798661 0 0 0 0.442775,0.04225 c 0.170685,0 0.3427,-0.01545 0.516058,-0.04626 0.17334,-0.03076 0.341482,-0.07567 0.504217,-0.134605 a 3.0939314,3.1057234 0 0 0 0.467862,-0.21476 2.7672844,2.7778314 0 0 0 0.416203,-0.28719 0.53843123,0.54048335 0 0 0 0.02482,-0.02378 c 0.02352,-0.02403 0.04261,-0.04851 0.05729,-0.07341 a 0.25315771,0.25412259 0 0 0 0.03792,-0.131552 0.25135531,0.25231329 0 0 0 -0.0049,-0.0498 0.30362541,0.30478261 0 0 0 -0.02113,-0.06473 c -0.01185,-0.0267 -0.02918,-0.05877 -0.05183,-0.09621 a 1.9771699,1.9847055 0 0 0 -0.03426,-0.05445 0.91235094,0.91582819 0 0 0 -0.03967,-0.03999 c -0.02725,-0.02566 -0.05273,-0.04581 -0.07635,-0.0604 a 0.21694551,0.21777237 0 0 0 -0.115993,-0.03197 0.26110471,0.26209989 0 0 0 -0.06144,0.0074 c -0.03011,0.0073 -0.06026,0.02 -0.09075,0.03791 a 0.51663835,0.51860745 0 0 0 -0.07583,0.05494 2.179778,2.1880859 0 0 1 -0.315893,0.206883 2.5816354,2.5914746 0 0 1 -0.346097,0.154687 c -0.11868,0.04281 -0.238672,0.07554 -0.36004,0.0983 a 2.1318501,2.1399753 0 0 1 -0.05104,0.009 1.8960611,1.9032877 0 0 1 -0.30307,0.02506 c -0.12001,0 -0.23662,-0.01472 -0.349958,-0.04417 a 1.4189941,1.4244023 0 0 1 -0.13153,-0.0408 1.1103711,1.114603 0 0 1 -0.168505,-0.07758 c -0.08667,-0.04957 -0.15597,-0.106387 -0.208022,-0.170592 a 0.39980896,0.40133273 0 0 1 -0.04111,-0.06103 0.28781329,0.28891021 0 0 1 -0.03696,-0.139905 c 0,-0.04551 0.01662,-0.08151 0.05009,-0.108262 0.0333,-0.02676 0.07673,-0.04016 0.130077,-0.04016 l 1.38814,-0.14055 a 1.7286822,1.7352706 0 0 0 0.180172,-0.02618 1.3192876,1.3243158 0 0 0 0.205793,-0.05831 1.1310169,1.1353276 0 0 0 0.112167,-0.04916 0.90153641,0.90497244 0 0 0 0.177943,-0.117412 c 0.08001,-0.06826 0.141332,-0.147843 0.18401,-0.238853 a 0.65009917,0.6525769 0 0 0 0.0087,-0.02345 z M 32.676194,40.103706 a 1.5621224,1.5680761 0 0 0 -0.06401,0.0015 c -0.09472,0.0039 -0.173468,0.0169 -0.236508,0.03871 a 0.35859916,0.35996589 0 0 0 -0.09554,0.04835 c -0.08,0.05894 -0.119993,0.158107 -0.119993,0.297317 h -0.0022 a 0.04997612,0.0501666 0 0 0 0,0.0017 c 0,0.01443 0.0068,0.06081 0.0182,0.139265 a 14.353387,14.408092 0 0 0 0.0057,0.03743 c 0.01597,0.10576 0.03733,0.240932 0.06399,0.405577 a 78.347809,78.646414 0 0 1 0.01155,0.07083 c 0.0237,0.147327 0.04986,0.31247 0.07858,0.495375 a 2463.375,2472.7639 0 0 1 0.0251,0.161262 2767.1144,2777.6609 0 0 1 0.07858,0.503405 48.193938,48.377618 0 0 1 0.104185,0.69872 c 0.03331,0.235593 0.06326,0.45766 0.08993,0.666435 a 20.13292,20.209654 0 0 1 0.03599,0.298763 14.716247,14.772335 0 0 1 0.02785,0.269532 c 0.01108,0.11684 0.0182,0.2177 0.0218,0.302303 a 2.5932691,2.6031529 0 0 1 0.003,0.105365 0.48992983,0.49179711 0 0 0 0,0.03261 c 0.0022,0.03037 0.0069,0.05804 0.01485,0.08305 a 0.22603953,0.22690102 0 0 0 0.06623,0.10521 c 0.03546,0.03124 0.07907,0.05226 0.130727,0.06329 a 0.44085491,0.44253513 0 0 0 0.09136,0.009 1.4199772,1.4253892 0 0 0 0.06626,-0.0015 c 0.03419,-0.0015 0.06609,-0.0044 0.0957,-0.0087 a 0.68590175,0.68851592 0 0 0 0.07999,-0.0159 0.43053196,0.43217283 0 0 0 0.06307,-0.022 0.32738454,0.32863231 0 0 0 0.09696,-0.06441 c 0.04132,-0.04013 0.07066,-0.09352 0.08801,-0.16046 a 0.66607515,0.66861377 0 0 0 0.01075,-0.04964 c 0.0054,-0.02883 0.0092,-0.05982 0.0117,-0.09316 a 1.3383768,1.3434778 0 0 0 0.0038,-0.102318 c 0,-0.07023 -0.0033,-0.159685 -0.01028,-0.268405 a 9.6235981,9.6602769 0 0 0 -0.0079,-0.115007 11.813699,11.858725 0 0 0 -0.0054,-0.06972 c -0.0057,-0.07116 -0.01185,-0.146708 -0.0198,-0.22648 a 20.909352,20.989045 0 0 0 -0.02673,-0.261978 51.910278,52.108123 0 0 0 -0.03648,-0.32832 65.44086,65.690277 0 0 0 -0.04145,-0.35434 82.786342,83.101864 0 0 0 -0.09265,-0.743535 c -0.0333,-0.258342 -0.068,-0.518007 -0.104012,-0.779037 a 111.88727,112.31371 0 0 0 -0.02705,-0.193555 97.877164,98.250204 0 0 0 -0.07905,-0.555278 1.5546669,1.5605923 0 0 0 -0.01075,-0.05847 c -0.0057,-0.02719 -0.0117,-0.0524 -0.0182,-0.07565 a 0.7227694,0.7255241 0 0 0 -0.02112,-0.06473 c -0.02,-0.05225 -0.04594,-0.09373 -0.07793,-0.124487 a 0.25455049,0.25552066 0 0 0 -0.04847,-0.03646 0.30329769,0.30445366 0 0 0 -0.07154,-0.02988 0.45150556,0.45322641 0 0 0 -0.0155,-0.004 c -0.02273,-0.0054 -0.04707,-0.0095 -0.07314,-0.0122 a 0.78118409,0.78416139 0 0 0 -0.07938,-0.0039 z m 25.338489,0.658565 a 1.2189257,1.2235715 0 0 0 -0.121778,0.0058 c -0.29226,0.02949 -0.438287,0.172137 -0.438287,0.427905 a 0.89473639,0.89814651 0 0 0 0,0.0103 c 0,0.0727 0.0095,0.182195 0.02817,0.32864 a 10.365703,10.40521 0 0 0 0.0218,0.165122 c 0.03339,0.23959 0.07205,0.53137 0.11601,0.875408 a 32.948764,33.074344 0 0 1 0.06497,0.546132 44.876918,45.047956 0 0 1 0.06304,0.606358 19.149866,19.222851 0 0 1 0.02848,0.322055 21.903304,21.986785 0 0 1 0.05746,1.01307 0.6428076,0.64525755 0 0 0 0.0085,0.08352 c 0.0139,0.08049 0.04382,0.140993 0.08929,0.181503 0.06002,0.05357 0.160745,0.08032 0.302107,0.08032 a 1.4527484,1.4582853 0 0 0 0.03071,0 c 0.05646,-10e-4 0.10613,-0.0058 0.149142,-0.01365 a 0.40767403,0.40922783 0 0 0 0.05809,-0.0151 0.30936039,0.31053944 0 0 0 0.07183,-0.03517 c 0.03599,-0.02412 0.06745,-0.05625 0.0941,-0.09638 a 0.46436828,0.46613813 0 0 0 0.01437,-0.0233 c 0.0106,-0.01805 0.02068,-0.038 0.03008,-0.05959 a 0.88097246,0.88433014 0 0 0 0.0272,-0.06972 15.250336,15.308459 0 0 1 0.08977,-0.265357 c 0.189245,-0.543115 0.37207,-0.959325 0.548368,-1.24854 a 2.2844822,2.293189 0 0 1 0.07504,-0.115488 c 0.17919,-0.257577 0.358965,-0.386307 0.53912,-0.386307 a 0.24856975,0.24951712 0 0 1 0.09249,0.018 c 0.0564,0.02243 0.11016,0.06584 0.16144,0.130425 a 0.91374371,0.91722624 0 0 1 0.05362,0.0755 c 0.02888,0.04507 0.0564,0.09544 0.08223,0.15115 a 1.8838539,1.8910338 0 0 1 0.07026,0.174915 2.3391283,2.3480432 0 0 1 0.01533,0.04514 c 0.02674,0.08229 0.0506,0.170927 0.0717,0.26567 a 3.9532748,3.9683421 0 0 1 0.05103,0.27756 4.2999946,4.3163831 0 0 1 0.02641,0.213635 5.0471785,5.0664148 0 0 1 0.02352,0.499067 c 0,0.04769 0.006,0.08953 0.01797,0.12544 a 0.2233359,0.22418711 0 0 0 0.064,0.09943 0.20301774,0.20379151 0 0 0 0.01978,0.01543 c 0.03896,0.0266 0.09148,0.04388 0.157788,0.05188 a 0.78044674,0.78342127 0 0 0 0.09249,0.005 1.4905992,1.4962803 0 0 0 0.06385,-10e-4 c 0.03179,-0.0015 0.06138,-0.0039 0.08896,-0.0074 a 0.70548255,0.70817137 0 0 0 0.0752,-0.01347 c 0.02493,-0.006 0.04766,-0.01367 0.06816,-0.02345 a 0.24488299,0.24581632 0 0 0 0.07554,-0.05462 c 0.03468,-0.0375 0.0594,-0.08778 0.07407,-0.150665 0.0096,-0.04128 0.0162,-0.09028 0.01957,-0.147135 a 1.6401999,1.6464512 0 0 0 0.0031,-0.09574 c 0,-0.361412 -0.03066,-0.688737 -0.09203,-0.9819 -0.03163,-0.151107 -0.06993,-0.290735 -0.11506,-0.418752 a 2.2586749,2.2672833 0 0 0 -0.144952,-0.330088 c -0.111978,-0.206142 -0.247998,-0.365565 -0.408045,-0.478022 a 0.91325211,0.91673281 0 0 0 -0.536055,-0.168493 1.1650171,1.1694573 0 0 0 -0.438113,0.08626 1.3235479,1.3285923 0 0 0 -0.13474,0.0636 1.5139487,1.5197188 0 0 0 -0.271235,0.189382 1.9770061,1.9845412 0 0 0 -0.152002,0.147293 2.429413,2.4386722 0 0 0 -0.208023,0.258285 c -0.112025,0.159332 -0.213365,0.339412 -0.304035,0.540185 a 0.30985194,0.31103289 0 0 1 -0.01533,0.02715 c -0.01888,0.03006 -0.03789,0.04513 -0.0568,0.04513 a 0.0461255,0.0463013 0 0 1 -0.03009,-0.01155 0.0741449,0.07442749 0 0 1 -0.0117,-0.0127 c -0.0088,-0.01183 -0.01455,-0.02938 -0.01687,-0.05269 a 0.27560601,0.27665644 0 0 1 0,-0.02763 177.61283,178.28976 0 0 0 -0.01955,-0.32414 c -0.0139,-0.226878 -0.02667,-0.42997 -0.03856,-0.609418 -0.0097,-0.146822 -0.01955,-0.283992 -0.02945,-0.411357 a 27.165381,27.268916 0 0 0 -0.02255,-0.27933 21.93206,22.015651 0 0 0 -0.02657,-0.284625 15.933698,15.994426 0 0 0 -0.02752,-0.255563 16.092638,16.153973 0 0 0 -0.064,-0.485892 0.26102281,0.26201766 0 0 0 0,-0.0072 0.20088761,0.20165326 0 0 0 -0.08304,-0.137333 0.26774091,0.26876136 0 0 0 -0.06898,-0.03614 0.29895551,0.30009491 0 0 0 -0.09905,-0.01605 z M 3.5357241,41.240123 a 1.0331948,1.0371326 0 0 0 -0.070405,0.0026 c -0.037163,0.0025 -0.071575,0.0071 -0.103221,0.0138 a 0.48009848,0.48192828 0 0 0 -0.094401,0.02988 0.32926889,0.33052381 0 0 0 -0.102083,0.07132 0.41660423,0.41819203 0 0 0 -0.065932,0.0893 c -0.028295,0.05066 -0.050741,0.11378 -0.067354,0.18922 a 1.3038032,1.3087724 0 0 0 -0.020913,0.124165 2.6932214,2.7034859 0 0 0 -0.01154,0.119347 c -0.00838,0.109158 -0.01233,0.235998 -0.01233,0.380518 a 7.6244714,7.6535307 0 0 0 0.027204,0.66146 5.6995715,5.7212945 0 0 0 0.096803,0.673662 c 0.042616,0.205 0.094748,0.394178 0.156507,0.56749 a 2.9573574,2.9686289 0 0 0 0.1995343,0.44654 2.2225445,2.2310153 0 0 0 0.1920257,0.29169 1.6740361,1.6804164 0 0 0 0.3699517,0.35274 1.2829935,1.2878834 0 0 0 0.7421478,0.226965 c 0.2480307,0 0.4754804,-0.05084 0.6821594,-0.152597 a 1.2338367,1.2385392 0 0 0 0.080316,-0.04337 c 0.1768205,-0.103995 0.344029,-0.259527 0.5016585,-0.466665 a 0.52073478,0.52271943 0 0 1 0.00284,-0.0045 c 0.022843,-0.03235 0.04445,-0.05495 0.064809,-0.06778 a 0.12985598,0.1303509 0 0 1 0.020913,-0.0106 0.13706565,0.13758805 0 0 1 0.051215,-0.0095 0.10765348,0.10806378 0 0 1 0.034886,0.0059 0.14067048,0.14120662 0 0 1 0.029117,0.01415 c 0.014385,0.0092 0.028911,0.02338 0.043375,0.04241 a 0.35884494,0.36021259 0 0 1 0.019775,0.02939 C 6.438772,45.00237 6.587407,45.13162 6.7487352,45.20525 a 1.1803376,1.1848363 0 0 0 0.2597123,0.08288 1.5108354,1.5165937 0 0 0 0.2944405,0.02764 c 0.2453277,0 0.4779779,-0.05089 0.6979824,-0.152597 0.2200678,-0.101758 0.4128208,-0.239755 0.5781325,-0.413775 A 1.9662735,1.9737676 0 0 0 8.9710371,44.14304 1.8765623,1.8837144 0 0 0 9.1150564,43.408338 2.6483246,2.6584184 0 0 0 9.0611224,42.874095 2.7385274,2.7489649 0 0 0 9.0057814,42.649703 2.083021,2.0909601 0 0 0 8.9171034,42.40234 1.7970101,1.8038591 0 0 0 8.8926184,42.34836 C 8.8676734,42.29584 8.8414344,42.247453 8.8139144,42.203323 A 1.0080429,1.0118849 0 0 0 8.7130852,42.067126 c -0.039471,-0.04452 -0.079147,-0.07756 -0.1190283,-0.09895 a 0.23349498,0.23438491 0 0 0 -0.1110612,-0.02956 0.47583821,0.47765173 0 0 0 -0.090575,0.0088 0.61781955,0.62017425 0 0 0 -0.095349,0.02715 c -0.065394,0.02408 -0.1253667,0.05485 -0.1800282,0.09236 a 0.74275982,0.7455907 0 0 0 -0.058723,0.04449 0.58709653,0.5893341 0 0 0 -0.077297,0.07806 0.33746171,0.33874789 0 0 0 -0.01821,0.02425 c -0.023915,0.03542 -0.036009,0.06943 -0.036009,0.10216 a 0.52876373,0.53077903 0 0 0 0,0.02779 0.43815128,0.43982121 0 0 0 0.059214,0.20319 159.44578,160.05348 0 0 0 0.063039,0.107298 208.8702,209.66627 0 0 0 0.069125,0.117417 1.1942654,1.1988171 0 0 1 0.012645,0.022 c 0.022477,0.04007 0.044007,0.08375 0.064652,0.131065 a 2.0447607,2.0525538 0 0 1 0.054882,0.140228 0.86319409,0.86648399 0 0 1 0.024945,0.0861 c 0.011855,0.04984 0.020912,0.104 0.02673,0.162555 a 1.8061862,1.8130701 0 0 1 0.00806,0.17893 1.4274327,1.432873 0 0 1 -0.00316,0.08819 1.2172053,1.2218444 0 0 1 -0.067355,0.337473 1.2404728,1.2452007 0 0 1 -0.023205,0.06023 1.0650648,1.0691241 0 0 1 -0.1708915,0.283185 0.91931481,0.92281859 0 0 1 -0.292038,0.230815 c -0.1119622,0.05625 -0.2319865,0.08433 -0.3600247,0.08433 a 1.0387659,1.042725 0 0 1 -0.11378,-0.0061 C 7.0850392,44.549093 6.9285637,44.470391 6.8103102,44.334368 a 0.90587859,0.90933116 0 0 1 -0.1569655,-0.267602 0.29166391,0.29277551 0 0 1 -0.02417,-0.07036 0.37424739,0.37567376 0 0 1 -0.00759,-0.07823 0.32132186,0.32254654 0 0 1 0,-0.02185 0.41136078,0.41292861 0 0 1 0.00332,-0.03036 0.52311068,0.5251044 0 0 1 0.00427,-0.02538 0.6591932,0.6617056 0 0 1 0.00791,-0.03486 4.0492126,4.0646453 0 0 0 0.085928,-0.473845 3.8285803,3.8431721 0 0 0 0.01821,-0.188247 4.5551183,4.5724793 0 0 0 0.011855,-0.333783 2.4466178,2.4559427 0 0 0 -0.00316,-0.09557 C 6.742325,42.519651 6.710837,42.366368 6.65567,42.254416 A 0.37293656,0.37435794 0 0 0 6.2996287,42.026808 c -0.1893702,0 -0.3346699,0.113798 -0.4360414,0.34133 a 1.1437977,1.1481571 0 0 0 -0.021797,0.0522 c -0.058992,0.15226 -0.097862,0.343232 -0.1168153,0.572795 h 0.00537 a 4.2528041,4.2690128 0 0 0 -0.013278,0.350805 c 0,0.09108 0.00332,0.18283 0.00996,0.27516 a 4.4672096,4.4842356 0 0 0 0.00648,0.07903 5.2154588,5.2353365 0 0 0 0.023537,0.212022 0.33746171,0.33874789 0 0 1 0,0.0042 c 0.00223,0.0095 0.00411,0.01867 0.00522,0.02747 a 0.20047797,0.20124206 0 0 1 0.00316,0.02666 v 0.05027 a 0.45158751,0.45330866 0 0 1 0,0.02956 0.37301846,0.37444016 0 0 1 -0.00727,0.05268 0.21727323,0.21810132 0 0 1 -0.00316,0.0081 c -0.00585,0.02313 -0.01565,0.04789 -0.030081,0.0742 A 1.3111767,1.316174 0 0 1 5.62923,44.355618 C 5.553134,44.470376 5.4639973,44.559516 5.3618355,44.623063 A 0.81960834,0.82273214 0 0 1 4.9208306,44.741606 0.5783302,0.5805344 0 0 1 4.6424183,44.670286 0.75906349,0.76195652 0 0 1 4.4748621,44.544681 1.1356049,1.139933 0 0 1 4.3942296,44.457456 C 4.3409278,44.393366 4.2908823,44.320073 4.2441403,44.237563 A 2.1726504,2.180931 0 0 1 4.1268498,43.994651 C 4.0295251,43.759058 3.9535241,43.477968 3.8988153,43.151361 a 5.650087,5.6716213 0 0 1 -0.056147,-0.446535 7.174113,7.2014557 0 0 1 -0.025924,-0.625643 1.1900871,1.1946229 0 0 1 0,-0.05509 c 0.00223,-0.0318 0.00474,-0.06581 0.00806,-0.101995 a 2.3824681,2.3915485 0 0 1 0.014542,-0.11003 c 0.00838,-0.05313 0.014385,-0.103665 0.01821,-0.151468 a 1.5240259,1.5298344 0 0 0 0.00569,-0.127697 0.5208167,0.5228017 0 0 0 -0.00522,-0.0771 c -0.00379,-0.02676 -0.010118,-0.05069 -0.018448,-0.07196 a 0.19351409,0.19425164 0 0 0 -0.054076,-0.07774 0.19441529,0.19515627 0 0 0 -0.012173,-0.0095 c -0.052432,-0.03794 -0.1317212,-0.05686 -0.2379457,-0.05686 z m 26.5651769,0.220865 a 1.1874654,1.1919912 0 0 0 -0.36597,0.05621 c -0.115992,0.03745 -0.223387,0.09443 -0.322102,0.170748 -0.0987,0.07627 -0.1873,0.17129 -0.26594,0.285112 a 1.3046225,1.3095948 0 0 0 -0.0944,0.160465 1.6203732,1.626549 0 0 0 -0.09556,0.239008 c -0.02022,0.05883 -0.03805,0.09546 -0.05374,0.109707 a 0.02187479,0.02195816 0 0 1 -0.01422,0.0067 c -0.01755,0 -0.03536,-0.03212 -0.05313,-0.09638 a 1.0228719,1.0267704 0 0 1 -0.01075,-0.04417 2.5384591,2.5481339 0 0 0 -0.02022,-0.07389 c -0.0068,-0.0232 -0.01328,-0.04498 -0.02022,-0.06521 a 1.1704243,1.1748852 0 0 0 -0.02385,-0.0657 c -0.02135,-0.05356 -0.04473,-0.09565 -0.07007,-0.126413 -0.02529,-0.03081 -0.0539,-0.05163 -0.08593,-0.06232 a 0.29903744,0.30017716 0 0 0 -0.0493,-0.01172 0.38735588,0.38883218 0 0 0 -0.05871,-0.0044 1.6420843,1.6483427 0 0 0 -0.0049,0 c -0.10684,0 -0.198285,0.01127 -0.274413,0.03261 a 0.50811788,0.51005445 0 0 0 -0.120497,0.0498 0.36064736,0.36202189 0 0 0 -0.0288,0.01863 c -0.03906,0.02835 -0.06783,0.06226 -0.08642,0.101518 a 0.27355779,0.27460041 0 0 0 -0.0248,0.118707 0.28969764,0.29080176 0 0 0 0,0.02265 c 0.0028,0.03669 0.01185,0.09361 0.02689,0.170913 a 5.7189885,5.7407853 0 0 0 0.018,0.08754 23.084135,23.172112 0 0 0 0.0098,0.04722 c 0.02946,0.1374 0.0674,0.308985 0.11394,0.514973 0.052,0.230215 0.111425,0.500615 0.1781,0.811152 a 33.675301,33.803649 0 0 1 0.101465,0.491355 44.974903,45.146316 0 0 1 0.104503,0.54276 c 0.07066,0.37879 0.139987,0.78764 0.20799,1.226698 a 31.905984,32.027586 0 0 1 0.05601,0.376185 37.043776,37.184959 0 0 1 0.130092,1.013222 0.18532129,0.1860276 0 0 0 0.111853,0.15324 c 0.02667,0.01262 0.05796,0.02193 0.09393,0.02779 a 0.66304385,0.66557092 0 0 0 0.106255,0.0077 0.78118409,0.78416139 0 0 0 0.193938,-0.0241 0.66746797,0.67001187 0 0 0 0.06977,-0.02185 0.52098055,0.52296615 0 0 0 0.09424,-0.04642 c 0.04671,-0.02944 0.08398,-0.0635 0.112025,-0.102323 a 0.23480584,0.23570077 0 0 0 0.0459,-0.126412 l -0.204008,-1.84318 a 0.44151033,0.44319306 0 0 1 0,-0.01235 c 0.0036,-0.128245 0.06356,-0.192435 0.179855,-0.192435 l 0.204025,0.0081 v 0 a 2.4552203,2.4645777 0 0 0 0.18929,-0.0072 2.0658981,2.0737719 0 0 0 0.62086,-0.14328 2.1734697,2.1817534 0 0 0 0.02288,-0.0097 1.909989,1.9172685 0 0 0 0.61509,-0.407988 1.8835262,1.8907049 0 0 0 0.418148,-0.636557 1.9571795,1.964639 0 0 0 0.07904,-0.237248 2.1865781,2.1949117 0 0 0 0.07088,-0.565885 c 0,-0.273087 -0.04666,-0.52666 -0.140003,-0.76088 a 2.1554455,2.1636604 0 0 0 -0.01328,-0.03277 1.8939311,1.9011494 0 0 0 -0.370757,-0.577607 1.7470341,1.7536925 0 0 0 -0.58006,-0.405578 1.7286002,1.7351885 0 0 0 -0.09009,-0.03646 1.815444,1.8223632 0 0 0 -0.63398,-0.110187 z m -15.37128,0.03228 c -0.07205,0 -0.143245,0.01 -0.213935,0.03005 a 1.0427804,1.0467548 0 0 0 -0.07648,0.02473 0.84205664,0.84526597 0 0 0 -0.113622,0.05156 0.6030725,0.605371 0 0 0 -0.07167,0.04594 0.43962598,0.44130153 0 0 0 -0.06435,0.05846 v 0 a 0.28789521,0.28899249 0 0 0 -0.0084,0.0093 c -0.02934,0.0358 -0.04402,0.07227 -0.04402,0.109223 a 0.668533,0.67108097 0 0 0 0,0.03566 c 0.0022,0.03384 0.0063,0.07588 0.01265,0.126093 a 3.7682813,3.7826436 0 0 0 0.01059,0.07501 c 0.01597,0.107133 0.03587,0.26983 0.06,0.487978 a 13.741302,13.793675 0 0 1 0.0076,0.07132 c 0.0218,0.208558 0.04533,0.473958 0.0704,0.79606 a 21.009304,21.089378 0 0 1 0.0043,0.05445 c 0.02638,0.351448 0.05093,0.791853 0.07377,1.320985 0.0054,0.06958 0.03339,0.124348 0.08402,0.164483 0.05066,0.04019 0.124134,0.06023 0.220179,0.06023 a 0.94430286,0.94790191 0 0 0 0.02352,0 c 0.05455,-0.0015 0.105212,-0.0076 0.152176,-0.01848 a 0.5251589,0.52716043 0 0 0 0.18017,-0.07774 0.46158271,0.46334196 0 0 0 0.01731,-0.01235 0.34917741,0.35050824 0 0 0 0.142739,-0.244635 23.773722,23.864331 0 0 1 0.04559,-0.352892 c 0.01549,-0.112233 0.03103,-0.21907 0.04674,-0.320615 a 12.781761,12.830476 0 0 1 0.05758,-0.34229 9.6564514,9.6932551 0 0 1 0.05009,-0.254593 c 0.01687,-0.07988 0.03389,-0.154752 0.05104,-0.224712 a 4.4015033,4.4182786 0 0 1 0.06097,-0.22343 c 0.03873,-0.127745 0.07842,-0.232083 0.119044,-0.313065 a 0.79052387,0.79353682 0 0 1 0.0549,-0.0946 0.47764061,0.47946106 0 0 1 0.0392,-0.04996 c 0.01821,-0.02008 0.0368,-0.03642 0.05585,-0.04899 a 0.17753811,0.17821477 0 0 1 0.09905,-0.03148 0.13673794,0.13725909 0 0 1 0.04848,0.0092 c 0.03718,0.01402 0.07434,0.04415 0.111519,0.0906 a 0.68278847,0.68539077 0 0 1 0.04802,0.06874 1.0573636,1.0613935 0 0 1 0.01502,0.02538 c 0.0427,0.07375 0.08579,0.166922 0.128955,0.27965 a 4.0254536,4.0407958 0 0 1 0.06595,0.186972 c 0.04416,0.13471 0.08888,0.289068 0.134092,0.462923 a 13.064249,13.114041 0 0 1 0.08209,0.334102 c 0.07328,0.315908 0.148604,0.677453 0.225932,1.084378 0.01344,0.06694 0.04462,0.112465 0.09393,0.136537 a 0.23349498,0.23438491 0 0 0 0.03136,0.0122 c 0.0334,0.0107 0.07602,0.0179 0.128023,0.02138 a 1.2440777,1.2488192 0 0 0 0.08273,0.0025 0.66074982,0.66326817 0 0 0 0.167998,-0.022 c 0.056,-0.01475 0.106699,-0.03619 0.152018,-0.06426 a 0.34065689,0.34195521 0 0 0 0.109939,-0.108417 0.25913846,0.26012611 0 0 0 0.03345,-0.08031 0.33746171,0.33874789 0 0 0 0.0085,-0.07822 c 0,-0.02143 -0.0022,-0.0443 -0.0041,-0.06843 -0.0027,-0.02405 -0.0068,-0.05086 -0.01217,-0.0803 a 26.122844,26.222406 0 0 0 -0.102415,-0.51513 c -0.03414,-0.162835 -0.06838,-0.31679 -0.102557,-0.46164 a 12.89728,12.946435 0 0 0 -0.122901,-0.48284 8.0427142,8.0733672 0 0 0 -0.107046,-0.355945 c -0.07692,-0.235207 -0.156602,-0.435132 -0.239068,-0.599777 a 2.3718174,2.3808572 0 0 0 -0.105276,-0.189543 c -0.04328,-0.06974 -0.08765,-0.131565 -0.133144,-0.185515 a 0.98592234,0.98967996 0 0 0 -0.153615,-0.149062 c -0.140051,-0.107075 -0.295452,-0.160468 -0.466122,-0.160468 -0.368039,0 -0.649249,0.282315 -0.843915,0.847143 -0.01755,0.06031 -0.03498,0.09866 -0.05234,0.115167 a 0.02908446,0.02919531 0 0 1 -0.01979,0.0093 0.02572541,0.02582346 0 0 1 -0.0128,-0.0032 c -0.0073,-0.004 -0.01344,-0.01172 -0.01888,-0.02297 a 0.13141261,0.13191347 0 0 1 -0.006,-0.0159 0.47813221,0.47995448 0 0 1 -0.0049,-0.01605 c -0.0079,-0.02687 -0.01619,-0.06236 -0.02512,-0.106492 -0.01619,-0.174023 -0.03282,-0.31518 -0.05009,-0.423573 a 2.9173764,2.9284954 0 0 0 -0.0049,-0.03068 c -0.01595,-0.09375 -0.03357,-0.167917 -0.05295,-0.222312 -0.01423,-0.04051 -0.03008,-0.07216 -0.04753,-0.09509 a 0.14116205,0.14170007 0 0 0 -0.02624,-0.02747 0.15082957,0.15140442 0 0 0 -0.05055,-0.02522 0.18704178,0.18775464 0 0 0 -0.05153,-0.0067 z m 3.892063,0 c -0.07199,0 -0.143403,0.01 -0.214093,0.03005 a 1.0427804,1.0467548 0 0 0 -0.07647,0.02473 0.84205664,0.84526597 0 0 0 -0.113464,0.05156 0.6030725,0.605371 0 0 0 -0.07186,0.04594 0.43962598,0.44130153 0 0 0 -0.06416,0.05846 h 0.0022 a 0.28789521,0.28899249 0 0 0 -0.0081,0.0093 c -0.02931,0.0358 -0.04399,0.07227 -0.04399,0.109223 a 0.668533,0.67108097 0 0 0 0,0.03566 c 0.0022,0.03384 0.006,0.07588 0.01233,0.126093 a 3.7682813,3.7826436 0 0 0 0.01059,0.07501 c 0.01596,0.107133 0.03591,0.26983 0.06,0.487978 a 13.741302,13.793675 0 0 1 0.0076,0.07132 c 0.02181,0.208558 0.04524,0.473958 0.07026,0.79606 a 21.009304,21.089378 0 0 1 0.0043,0.05445 c 0.02646,0.351448 0.0511,0.791853 0.07391,1.320985 0.0054,0.06958 0.03342,0.124348 0.08401,0.164483 0.05069,0.04019 0.124039,0.06023 0.220037,0.06023 a 0.94430286,0.94790191 0 0 0 0.02351,0 c 0.05452,-0.0015 0.105339,-0.0076 0.152365,-0.01848 a 0.5251589,0.52716043 0 0 0 0.180012,-0.07774 0.46158271,0.46334196 0 0 0 0.01731,-0.01235 0.34917741,0.35050824 0 0 0 0.142739,-0.244635 23.773722,23.864331 0 0 1 0.0456,-0.352892 c 0.01549,-0.112233 0.03103,-0.21907 0.04673,-0.320615 a 12.781761,12.830476 0 0 1 0.05762,-0.34229 9.6564514,9.6932551 0 0 1 0.05006,-0.254593 c 0.01686,-0.07988 0.034,-0.154752 0.05121,-0.224712 a 4.4015033,4.4182786 0 0 1 0.06081,-0.22343 c 0.03871,-0.127745 0.0784,-0.232083 0.119044,-0.313065 a 0.79052387,0.79353682 0 0 1 0.0549,-0.0946 0.47764061,0.47946106 0 0 1 0.03938,-0.04996 c 0.01821,-0.02008 0.03666,-0.03642 0.05567,-0.04899 a 0.17753811,0.17821477 0 0 1 0.09903,-0.03148 0.13673794,0.13725909 0 0 1 0.0485,0.0092 c 0.03721,0.01402 0.07436,0.04415 0.111536,0.0906 a 0.68278847,0.68539077 0 0 1 0.04799,0.06874 1.0573636,1.0613935 0 0 1 0.01533,0.02538 c 0.04271,0.07375 0.0856,0.166922 0.128813,0.27965 a 4.0254536,4.0407958 0 0 1 0.06609,0.186972 c 0.04413,0.13471 0.08885,0.289068 0.134093,0.462923 a 13.064249,13.114041 0 0 1 0.08191,0.334102 c 0.07336,0.315908 0.148761,0.677453 0.226122,1.084378 0.01344,0.06694 0.04466,0.112465 0.09393,0.136537 a 0.23349498,0.23438491 0 0 0 0.03136,0.0122 c 0.03337,0.0107 0.07602,0.0179 0.128023,0.02138 a 1.2440777,1.2488192 0 0 0 0.08272,0.0025 0.66074982,0.66326817 0 0 0 0.168015,-0.022 c 0.05601,-0.01475 0.106509,-0.03619 0.151859,-0.06426 a 0.34065689,0.34195521 0 0 0 0.110098,-0.108417 0.25913846,0.26012611 0 0 0 0.03343,-0.08031 0.33746171,0.33874789 0 0 0 0.0087,-0.07822 c 0,-0.02143 -0.0022,-0.0443 -0.0041,-0.06843 -0.0027,-0.02405 -0.0068,-0.05086 -0.01217,-0.0803 a 26.122844,26.222406 0 0 0 -0.102399,-0.51513 c -0.03419,-0.162835 -0.06841,-0.31679 -0.102557,-0.46164 a 12.89728,12.946435 0 0 0 -0.123075,-0.48284 8.0427142,8.0733672 0 0 0 -0.106873,-0.355945 c -0.0769,-0.235207 -0.156601,-0.435132 -0.239068,-0.599777 a 2.3718174,2.3808572 0 0 0 -0.105465,-0.189543 c -0.0433,-0.06974 -0.08752,-0.131565 -0.132955,-0.185515 a 0.98592234,0.98967996 0 0 0 -0.153614,-0.149062 c -0.139988,-0.107075 -0.295436,-0.160468 -0.466138,-0.160468 -0.367992,0 -0.64936,0.282315 -0.844073,0.847143 -0.01731,0.06031 -0.03482,0.09866 -0.05234,0.115167 a 0.02908446,0.02919531 0 0 1 -0.01955,0.0093 0.02572541,0.02582346 0 0 1 -0.0128,-0.0032 c -0.0073,-0.004 -0.01344,-0.01172 -0.01889,-0.02297 a 0.13141261,0.13191347 0 0 1 -0.0063,-0.0159 0.47813221,0.47995448 0 0 1 -0.0049,-0.01605 c -0.0079,-0.02687 -0.01619,-0.06236 -0.02513,-0.106492 -0.01597,-0.174023 -0.0325,-0.31518 -0.0499,-0.423573 a 2.9173764,2.9284954 0 0 0 -0.0049,-0.03068 c -0.01597,-0.09375 -0.03356,-0.167917 -0.05297,-0.222312 -0.01439,-0.04051 -0.03029,-0.07216 -0.0475,-0.09509 a 0.14116205,0.14170007 0 0 0 -0.02673,-0.02747 0.15082957,0.15140442 0 0 0 -0.05041,-0.02522 0.18704178,0.18775464 0 0 0 -0.05152,-0.0067 z m -6.588012,0.06008 a 1.4677413,1.4733353 0 0 0 -0.281779,0.02828 1.881396,1.8885666 0 0 0 -0.314437,0.09219 2.7946484,2.8052996 0 0 0 -0.155211,0.06553 3.1618499,3.1739006 0 0 0 -0.458756,0.259732 4.1313046,4.1470501 0 0 0 -0.576077,0.474008 4.4109251,4.4277363 0 0 0 -0.03392,0.03357 4.0111161,4.0264038 0 0 0 -0.4480389,0.532475 3.3430746,3.3558161 0 0 0 -0.098732,0.14906 2.8583061,2.8692001 0 0 0 -0.2313858,0.45345 1.8361718,1.8431699 0 0 0 -0.079036,0.243182 1.4030181,1.4083654 0 0 0 -0.043043,0.339085 1.1255277,1.1298175 0 0 0 0.00759,0.130748 0.89285204,0.89625496 0 0 0 0.054566,0.224555 0.85590249,0.85916459 0 0 0 0.012172,0.02939 0.73636942,0.73917595 0 0 0 0.1638415,0.239658 0.72186817,0.72461945 0 0 0 0.092678,0.07581 0.82780117,0.83095617 0 0 0 0.18545,0.09493 0.94454866,0.94814861 0 0 0 0.162403,0.04305 1.1952485,1.199804 0 0 0 0.2056192,0.01703 1.6164407,1.6226015 0 0 0 0.466597,-0.07068 2.0929344,2.1009111 0 0 0 0.417326,-0.180222 c 0.168078,-0.09408 0.330702,-0.214683 0.487747,-0.361728 a 3.5202031,3.5336196 0 0 0 0.356515,-0.391282 0.14828979,0.14885498 0 0 1 0.02382,-0.02538 0.092251,0.0926026 0 0 1 0.06032,-0.02283 0.04030861,0.04046223 0 0 1 0.02545,0.0095 c 0.01059,0.0083 0.02001,0.02225 0.02817,0.0416 a 0.27732651,0.27838349 0 0 1 0.01059,0.0294 2.4985601,2.5080829 0 0 0 0.05199,0.214275 c 0.06746,0.230718 0.162071,0.412888 0.28385,0.546613 a 0.97084754,0.97454774 0 0 0 0.0757,0.07469 0.69696205,0.6996184 0 0 0 0.472525,0.184235 c 0.120008,0 0.238657,-0.0187 0.356041,-0.05622 0.117321,-0.03745 0.222518,-0.08623 0.315859,-0.146488 a 1.0309008,1.0348299 0 0 0 0.104992,-0.0771 0.79806127,0.80110292 0 0 0 0.12113,-0.125765 0.57415185,0.57634013 0 0 0 0.0057,-0.0072 c 0.05368,-0.07254 0.08047,-0.145113 0.08047,-0.21765 0,-0.07495 -0.02322,-0.139183 -0.06991,-0.192745 a 0.28650244,0.28759439 0 0 0 -0.03041,-0.0302 0.19859363,0.19935053 0 0 0 -0.131516,-0.04995 0.35204489,0.35338664 0 0 0 -0.104027,0.0159 1.6101322,1.6162689 0 0 0 -0.03983,0.013 1.9621771,1.9696556 0 0 0 -0.07026,0.02522 0.94143539,0.94502349 0 0 1 -0.02945,0.0106 1.0773541,1.0814602 0 0 1 -0.0944,0.02747 c -0.04404,0.0107 -0.09394,0.01605 -0.149932,0.01605 -0.15736,0 -0.28475,-0.08833 -0.382107,-0.265035 a 0.80576252,0.80883349 0 0 1 -0.03969,-0.08352 c -0.07246,-0.176655 -0.113163,-0.42854 -0.122253,-0.755747 l -0.01619,-0.321248 v 0 a 0.0326893,0.03281388 0 0 0 0.007,-10e-4 0.03850619,0.03865295 0 0 0 0.009,-0.0032 c 0.0054,0 0.01012,-0.001 0.01423,-0.002 0.0038,-10e-4 0.0084,-0.002 0.01328,-0.002 a 0.43970793,0.44138378 0 0 0 0.169943,-0.03404 0.50172748,0.5036397 0 0 0 0.146074,-0.09237 0.44470556,0.44640043 0 0 0 0.101941,-0.136527 c 0.02535,-0.0522 0.03808,-0.10636 0.03808,-0.162558 a 0.87818691,0.88153396 0 0 0 0,-0.01318 0.74595502,0.74879807 0 0 0 -0.09393,-0.36028 c -0.06271,-0.112452 -0.145948,-0.208962 -0.249927,-0.289287 a 1.1205301,1.1248008 0 0 0 -0.09696,-0.06682 1.265297,1.2701195 0 0 0 -0.263237,-0.121913 1.3320684,1.3371453 0 0 0 -0.423885,-0.06827 z m 12.3329,0 a 1.4677413,1.4733353 0 0 0 -0.281779,0.02828 1.881396,1.8885666 0 0 0 -0.314437,0.09219 2.7946484,2.8052996 0 0 0 -0.155385,0.06553 3.1618499,3.1739006 0 0 0 -0.458582,0.259732 4.1313046,4.1470501 0 0 0 -0.576062,0.474008 4.4109251,4.4277363 0 0 0 -0.0341,0.03357 4.0111161,4.0264038 0 0 0 -0.448055,0.532475 3.3430746,3.3558161 0 0 0 -0.09856,0.14906 2.8583061,2.8692001 0 0 0 -0.231386,0.45345 1.8361718,1.8431699 0 0 0 -0.07904,0.243182 1.4030181,1.4083654 0 0 0 -0.0429,0.339085 1.1255277,1.1298175 0 0 0 0.0074,0.130748 0.89285204,0.89625496 0 0 0 0.05472,0.224555 0.85590249,0.85916459 0 0 0 0.01186,0.02939 0.73636942,0.73917595 0 0 0 0.164031,0.239658 0.72186817,0.72461945 0 0 0 0.09249,0.07581 0.82780117,0.83095617 0 0 0 0.18545,0.09493 0.94454866,0.94814861 0 0 0 0.162577,0.04305 1.1952485,1.199804 0 0 0 0.205462,0.01703 1.6164407,1.6226015 0 0 0 0.466771,-0.07068 2.0929344,2.1009111 0 0 0 0.417326,-0.180222 c 0.167999,-0.09408 0.330528,-0.214683 0.487557,-0.361728 a 3.5202031,3.5336196 0 0 0 0.356515,-0.391282 0.14828979,0.14885498 0 0 1 0.02385,-0.02538 0.092251,0.0926026 0 0 1 0.06032,-0.02283 0.04030861,0.04046223 0 0 1 0.02577,0.0095 c 0.01059,0.0083 0.01977,0.02225 0.02814,0.0416 a 0.27732651,0.27838349 0 0 1 0.01059,0.0294 2.4985601,2.5080829 0 0 0 0.05199,0.214275 c 0.06745,0.230718 0.162182,0.412888 0.28404,0.546613 a 0.97084754,0.97454774 0 0 0 0.07554,0.07469 0.69696205,0.6996184 0 0 0 0.47251,0.184235 c 0.120007,0 0.238672,-0.0187 0.356042,-0.05622 0.11732,-0.03745 0.22269,-0.08623 0.316033,-0.146488 a 1.0309008,1.0348299 0 0 0 0.104802,-0.0771 0.79806127,0.80110292 0 0 0 0.12113,-0.125765 0.57415185,0.57634013 0 0 0 0.0057,-0.0072 c 0.05367,-0.07254 0.08047,-0.145113 0.08047,-0.21765 0,-0.07495 -0.02323,-0.139183 -0.06991,-0.192745 a 0.28650244,0.28759439 0 0 0 -0.03041,-0.0302 0.19859363,0.19935053 0 0 0 -0.131518,-0.04995 0.35204489,0.35338664 0 0 0 -0.104027,0.0159 1.6101322,1.6162689 0 0 0 -0.03983,0.013 1.9621771,1.9696556 0 0 0 -0.07026,0.02522 0.94143539,0.94502349 0 0 1 -0.02945,0.0106 1.0773541,1.0814602 0 0 1 -0.0944,0.02747 c -0.04399,0.0107 -0.09394,0.01605 -0.149933,0.01605 -0.15736,0 -0.284765,-0.08833 -0.382107,-0.265035 a 0.80576252,0.80883349 0 0 1 -0.03969,-0.08352 c -0.07246,-0.176655 -0.113323,-0.42854 -0.122413,-0.755747 l -0.01597,-0.321248 v 0 a 0.0326893,0.03281388 0 0 0 0.007,-10e-4 0.03850619,0.03865295 0 0 0 0.009,-0.0032 c 0.0054,0 0.0099,-0.001 0.0139,-0.002 0.0038,-10e-4 0.0084,-0.002 0.01328,-0.002 a 0.43970793,0.44138378 0 0 0 0.1701,-0.03404 0.50172748,0.5036397 0 0 0 0.145933,-0.09237 0.44470556,0.44640043 0 0 0 0.102082,-0.136527 c 0.02535,-0.0522 0.03792,-0.10636 0.03792,-0.162558 a 0.87818691,0.88153396 0 0 0 0,-0.01318 0.74595502,0.74879807 0 0 0 -0.09393,-0.36028 c -0.06267,-0.112452 -0.146105,-0.208962 -0.250102,-0.289287 a 1.1205301,1.1248008 0 0 0 -0.0968,-0.06682 1.265297,1.2701195 0 0 0 -0.263222,-0.121913 1.3320684,1.3371453 0 0 0 -0.423885,-0.06827 z m 12.325534,0 a 1.4677413,1.4733353 0 0 0 -0.281795,0.02843 1.881396,1.8885666 0 0 0 -0.314262,0.09204 2.7946484,2.8052996 0 0 0 -0.15537,0.06553 3.1618499,3.1739006 0 0 0 -0.458598,0.259732 4.1313046,4.1470501 0 0 0 -0.576237,0.474008 4.4109251,4.4277363 0 0 0 -0.03392,0.03357 4.0111161,4.0264038 0 0 0 -0.44804,0.532475 3.3430746,3.3558161 0 0 0 -0.09858,0.14906 2.8583061,2.8692001 0 0 0 -0.231385,0.45345 1.8361718,1.8431699 0 0 0 -0.07905,0.243182 1.4030181,1.4083654 0 0 0 -0.04303,0.339085 1.1255277,1.1298175 0 0 0 0.0076,0.130748 0.89285204,0.89625496 0 0 0 0.05471,0.224555 0.85590249,0.85916459 0 0 0 0.01185,0.02939 0.73636942,0.73917595 0 0 0 0.164032,0.239658 0.72186817,0.72461945 0 0 0 0.09249,0.07581 0.82780117,0.83095617 0 0 0 0.18545,0.09493 0.94454866,0.94814861 0 0 0 0.16256,0.04305 1.1952485,1.199804 0 0 0 0.205495,0.01703 1.6164407,1.6226015 0 0 0 0.466737,-0.07068 2.0929344,2.1009111 0 0 0 0.417328,-0.180222 c 0.16803,-0.09408 0.330655,-0.214683 0.48773,-0.361728 a 3.5202031,3.5336196 0 0 0 0.356357,-0.391282 0.14828979,0.14885498 0 0 1 0.02383,-0.02538 0.092251,0.0926026 0 0 1 0.06032,-0.02283 0.04030861,0.04046223 0 0 1 0.02578,0.0095 c 0.01028,0.0083 0.01955,0.02225 0.02784,0.0416 a 0.27732651,0.27838349 0 0 1 0.0106,0.0294 2.4985601,2.5080829 0 0 0 0.052,0.214275 c 0.06751,0.230718 0.16223,0.412888 0.284022,0.546613 a 0.97084754,0.97454774 0 0 0 0.07569,0.07469 0.69696205,0.6996184 0 0 0 0.472382,0.184235 c 0.120025,0 0.23869,-0.0187 0.35601,-0.05622 0.1174,-0.03745 0.222708,-0.08623 0.31605,-0.146488 a 1.0309008,1.0348299 0 0 0 0.104818,-0.0771 0.79806127,0.80110292 0 0 0 0.121287,-0.125765 0.57415185,0.57634013 0 0 0 0.0054,-0.0072 c 0.05367,-0.07254 0.08049,-0.145113 0.08049,-0.21765 0,-0.07495 -0.0233,-0.139183 -0.06995,-0.192745 a 0.28650244,0.28759439 0 0 0 -0.03055,-0.0302 0.19859363,0.19935053 0 0 0 -0.131533,-0.04995 0.35204489,0.35338664 0 0 0 -0.104025,0.0159 1.6101322,1.6162689 0 0 0 -0.03984,0.013 1.9621771,1.9696556 0 0 0 -0.07007,0.02522 0.94143539,0.94502349 0 0 1 -0.02947,0.0106 1.0773541,1.0814602 0 0 1 -0.09454,0.02747 c -0.04402,0.0107 -0.09396,0.01605 -0.149965,0.01605 -0.157342,0 -0.284765,-0.08833 -0.382122,-0.265035 a 0.80576252,0.80883349 0 0 1 -0.03968,-0.08352 c -0.07251,-0.176655 -0.113322,-0.42854 -0.122412,-0.755747 l -0.01598,-0.321248 v 0 a 0.0326893,0.03281388 0 0 0 0.0071,-10e-4 0.03850619,0.03865295 0 0 0 0.009,-0.0032 c 0.0054,0 0.01,-0.001 0.0139,-0.002 0.0036,-10e-4 0.008,-0.002 0.01295,-0.002 a 0.43970793,0.44138378 0 0 0 0.170099,-0.03404 0.50172748,0.5036397 0 0 0 0.145948,-0.09237 0.44470556,0.44640043 0 0 0 0.102067,-0.136527 c 0.02536,-0.0522 0.03792,-0.10636 0.03792,-0.162558 a 0.87818691,0.88153396 0 0 0 0,-0.01318 0.74595502,0.74879807 0 0 0 -0.09377,-0.36028 c -0.06266,-0.112452 -0.146058,-0.208962 -0.250117,-0.289287 a 1.1205301,1.1248008 0 0 0 -0.0968,-0.06682 1.265297,1.2701195 0 0 0 -0.263205,-0.121913 1.3320684,1.3371453 0 0 0 -0.42406,-0.06827 z m 2.202605,0.196605 c -0.167983,0 -0.28935,0.03943 -0.364023,0.118385 a 0.28961571,0.29071954 0 0 0 -0.01455,0.0167 c -0.04589,0.05664 -0.07565,0.135655 -0.08912,0.237083 a 1.0428623,1.046837 0 0 0 -0.0084,0.137815 3.1679124,3.1799864 0 0 0 0.08001,0.70675 3.7967106,3.8111806 0 0 0 0.220022,0.67656 c 0.09334,0.215525 0.202695,0.416317 0.32803,0.602345 a 3.1234254,3.1353296 0 0 0 0.120655,0.16721 2.6251391,2.6351444 0 0 0 0.287393,0.316757 c 0.146705,0.136518 0.30002,0.24417 0.460035,0.32318 a 1.2681645,1.2729979 0 0 0 0.108817,0.04771 h 0.0022 a 1.0381105,1.0420671 0 0 0 0.37139,0.07083 c 0.106683,0 0.208008,-0.01207 0.30402,-0.03614 a 0.95397039,0.95760626 0 0 0 0.08964,-0.02715 1.092265,1.0964279 0 0 0 0.194397,-0.09333 0.73145375,0.73424152 0 0 1 0.02482,-0.01462 c 0.01232,-0.007 0.02415,-0.01318 0.03552,-0.01848 a 0.34524486,0.34656071 0 0 1 0.03184,-0.01302 0.42332231,0.42493571 0 0 1 0.0074,-0.0025 c 0.01532,-0.005 0.02853,-0.0084 0.03985,-0.01013 a 0.11174988,0.11217579 0 0 1 0.0164,-0.0015 0.1243668,0.1248408 0 0 1 0.0033,0 c 0.0079,0 0.01503,10e-4 0.02135,0.0029 a 0.05349903,0.05370293 0 0 1 0.03522,0.02715 0.09143172,0.09178019 0 0 1 0.0065,0.01557 c 0.0063,0.02045 0.0096,0.04945 0.0096,0.08691 v 0.236915 a 15.624665,15.684215 0 0 0 0,0.108105 v 0.118862 a 27.383144,27.487511 0 0 0 0.0032,0.156448 c 0.0027,0.145895 0.0047,0.303885 0.0058,0.473842 a 20.30587,20.383262 0 0 0 0.0097,0.501963 122.08281,122.54811 0 0 0 0.0081,0.239812 101.88025,102.26855 0 0 0 0.0081,0.225998 12.824364,12.873241 0 0 0 0.0052,0.130265 c 0.0023,0.04123 0.0043,0.08041 0.0063,0.117417 a 6.381213,6.405534 0 0 0 0.0084,0.123848 c 0.0022,0.03059 0.0069,0.05877 0.01485,0.08465 a 0.26602044,0.26703431 0 0 0 0.05522,0.101995 0.19900327,0.19976173 0 0 0 0.09121,0.05959 0.25012636,0.25107969 0 0 0 0.0749,0.01077 0.94258236,0.94617484 0 0 0 0.0296,-10e-4 0.83689519,0.84008484 0 0 0 0.19824,-0.02971 0.78298652,0.78597072 0 0 0 0.08323,-0.02811 0.6106918,0.61301933 0 0 0 0.104817,-0.05413 0.5394963,0.5415525 0 0 0 0.04911,-0.03598 0.43192476,0.43357098 0 0 0 0.07889,-0.0845 0.30026636,0.30141076 0 0 0 0.0128,-0.01942 0.23980344,0.24071742 0 0 0 0.03536,-0.12513 0.5801326,0.58234368 0 0 0 0,-0.01463 c 0,-0.03059 -0.003,-0.07457 -0.009,-0.132035 a 6.3491792,6.373378 0 0 0 -0.0069,-0.07019 18.028681,18.097393 0 0 1 -0.0048,-0.04498 c -0.0044,-0.04595 -0.0092,-0.09479 -0.01422,-0.146485 a 32.150786,32.273321 0 0 1 -0.0155,-0.16995 24.239318,24.331703 0 0 1 -0.009,-0.103443 27.493254,27.598039 0 0 1 -0.02495,-0.3243 6.4996812,6.5244535 0 0 1 -0.01218,-0.214275 5.046441,5.0656745 0 0 1 -0.0041,-0.197245 V 45.78915 a 4.0823118,4.0978708 0 0 1 0,-0.05622 4.8090953,4.8274241 0 0 1 0.0036,-0.13059 c 0.0022,-0.03481 0.0036,-0.07204 0.0049,-0.11179 a 35.730794,35.866976 0 0 1 0.0054,-0.110992 21.931815,22.015403 0 0 1 0.0041,-0.08257 c 0.0022,-0.02905 0.0036,-0.05963 0.0049,-0.09187 a 41.816573,41.975951 0 0 1 0.0069,-0.12272 37.051806,37.193021 0 0 1 0.0068,-0.114847 c 0.0025,-0.04052 0.0052,-0.08338 0.0081,-0.1285 a 72.633,72.909822 0 0 1 0.01107,-0.172353 71.54647,71.819155 0 0 0 0.01028,-0.160622 c 0.0079,-0.124298 0.0164,-0.26274 0.02573,-0.415545 a 1.3714758,1.3767029 0 0 1 0.0096,-0.10007 1.0952144,1.0993886 0 0 1 0.02845,-0.142958 c 0.02,-0.07357 0.04124,-0.148552 0.06386,-0.22487 a 2.4345745,2.4438534 0 0 0 0.02045,-0.07309 2.8655979,2.8765196 0 0 0 0.03971,-0.171865 c 0.0098,-0.05028 0.01685,-0.105663 0.02135,-0.16625 a 2.012481,2.0201511 0 0 0 0.0048,-0.140868 2.8231594,2.8339191 0 0 0 -0.0032,-0.09975 c -0.0023,-0.0465 -0.0049,-0.09002 -0.0085,-0.130425 a 1.3191238,1.3241513 0 0 0 -0.01598,-0.113245 c -0.0173,-0.09233 -0.04609,-0.16731 -0.08609,-0.224877 -0.04004,-0.05757 -0.09203,-0.09904 -0.156018,-0.12448 a 0.44855616,0.45026573 0 0 0 -0.02927,-0.01045 c -0.05789,-0.01847 -0.125558,-0.02762 -0.202745,-0.02762 a 1.5510621,1.5569737 0 0 0 -0.06321,10e-4 c -0.02573,10e-4 -0.04966,0.0028 -0.07184,0.0053 a 0.6782005,0.68078535 0 0 0 -0.06288,0.0097 0.31861824,0.31983259 0 0 0 -0.05857,0.01768 0.22915279,0.23002618 0 0 0 -0.06751,0.04257 0.23562513,0.23652315 0 0 0 -0.0469,0.06087 0.32640141,0.32764541 0 0 0 -0.02512,0.05959 c -0.01597,0.05088 -0.02654,0.116455 -0.03201,0.19677 a 70.19113,70.45865 0 0 1 -0.05009,0.55207 23.047103,23.134941 0 0 0 -0.0459,0.560263 c -0.0027,0.02485 -0.006,0.04821 -0.01,0.07019 a 0.81731439,0.82042939 0 0 1 -0.01217,0.05831 0.27732651,0.27838349 0 0 1 0,0.0039 c -0.0052,0.0193 -0.01233,0.03883 -0.0218,0.05879 a 0.45404533,0.45577586 0 0 1 -0.03106,0.05381 0.95970534,0.96336309 0 0 1 -0.04334,0.05622 0.80142032,0.80447477 0 0 1 -0.220495,0.18681 c -0.101388,0.05751 -0.209398,0.08625 -0.324048,0.08625 -0.16003,0 -0.311465,-0.05626 -0.454125,-0.168658 -0.08476,-0.06677 -0.164757,-0.1505 -0.240015,-0.251212 a 2.0278015,2.0355301 0 0 1 -0.14802,-0.23066 2.5462421,2.5559469 0 0 1 -0.03634,-0.06762 c -0.100817,-0.19514 -0.18929,-0.42553 -0.265607,-0.691328 a 5.882845,5.9052663 0 0 1 -0.114098,-0.472882 7.7825927,7.8122544 0 0 1 -0.08609,-0.527015 0.40202101,0.40355323 0 0 0 -0.0068,-0.03727 c -0.035,-0.149128 -0.150042,-0.22375 -0.345135,-0.22375 z m -8.8026,0.44204 c 0.14394,0 0.278065,0.03616 0.402103,0.108425 0.123977,0.07227 0.232002,0.171315 0.324047,0.29716 a 1.3472251,1.3523598 0 0 1 0.106068,0.17106 1.6417564,1.6480137 0 0 1 0.111867,0.27275 1.656995,1.6633105 0 0 1 0.04047,0.154843 1.8852466,1.892432 0 0 1 0.03952,0.393205 1.3315768,1.3366519 0 0 1 -0.0069,0.139267 1.0804673,1.0845853 0 0 1 -0.07297,0.298443 0.97092949,0.97462999 0 0 1 -0.228018,0.339397 c -0.0987,0.09507 -0.217365,0.16795 -0.356042,0.218775 a 1.1986895,1.2032581 0 0 1 -0.198428,0.05365 1.4912546,1.4969383 0 0 1 -0.265625,0.02265 0.85573862,0.85900012 0 0 1 -0.05265,-0.0018 c -0.02398,-0.0015 -0.04979,-0.0039 -0.07744,-0.0074 a 1.9573434,1.9648034 0 0 1 -0.088,-0.01302 c -0.08669,-0.0147 -0.164665,-0.0302 -0.233947,-0.04626 a 0.31321099,0.31440474 0 0 1 -0.0301,-0.0056 c -0.0962,-0.02325 -0.15148,-0.08968 -0.165942,-0.19917 a 9.0894271,9.1240696 0 0 1 -0.03806,-0.286557 7.1418332,7.1690532 0 0 1 -0.02591,-0.265513 c -0.01343,-0.170025 -0.02025,-0.342072 -0.02025,-0.51609 v 0 c 0,-0.168642 0.02,-0.322595 0.06001,-0.461795 a 1.2686561,1.2734913 0 0 1 0.05697,-0.159342 0.97379699,0.97750841 0 0 1 0.113133,-0.19596 0.79773359,0.80077397 0 0 1 0.264027,-0.228895 0.68090412,0.68349927 0 0 1 0.104643,-0.04513 0.74513575,0.7479757 0 0 1 0.237297,-0.03727 z m -18.205809,0.08417 a 0.41488368,0.41646496 0 0 1 0.08768,0.009 0.28412654,0.28520941 0 0 1 0.136353,0.0694 c 0.05602,0.05219 0.10937,0.11316 0.16,0.182785 0.01596,0.02408 0.02385,0.04684 0.02385,0.06827 a 0.03842426,0.03857071 0 0 1 -0.0128,0.02892 c -0.0096,0.0092 -0.02472,0.01632 -0.0453,0.02152 a 0.27568794,0.27673866 0 0 1 -0.02976,0.0058 c -0.07466,0.0134 -0.132022,0.04075 -0.171998,0.08224 a 0.38645468,0.38792758 0 0 0 -0.01186,0.01318 c -0.02456,0.02801 -0.05072,0.06499 -0.07823,0.110993 v 0 a 1.5935008,1.5995741 0 0 0 -0.04162,0.07469 c -0.163684,0.294753 -0.327399,0.542855 -0.491082,0.744343 a 2.6835536,2.6937816 0 0 1 -0.285004,0.303582 1.9805291,1.9880774 0 0 1 -0.211848,0.167688 c -0.07795,0.05286 -0.153867,0.09434 -0.227877,0.124167 a 0.74079355,0.74361695 0 0 1 -0.276499,0.0575 0.35966421,0.36103501 0 0 1 -0.072,-0.0067 0.24504683,0.24598079 0 0 1 -0.129793,-0.06955 0.23472389,0.2356185 0 0 1 -0.02366,-0.02843 c -0.01957,-0.02796 -0.03351,-0.06054 -0.04178,-0.09783 a 0.40161136,0.40314203 0 0 1 -0.0085,-0.08657 0.57726515,0.57946528 0 0 1 0.0047,-0.071 c 0.01028,-0.08339 0.03821,-0.174727 0.08353,-0.27419 0.05874,-0.128517 0.136084,-0.258365 0.232002,-0.389512 a 3.0346974,3.0462636 0 0 1 0.05556,-0.07373 3.4029641,3.4159341 0 0 1 0.274571,-0.30985 3.9807208,3.9958926 0 0 1 0.07009,-0.06858 3.5202851,3.5337019 0 0 1 0.309805,-0.264713 2.4988878,2.5084119 0 0 1 0.156649,-0.10939 1.9707795,1.9782908 0 0 1 0.225443,-0.125607 1.2235957,1.2282592 0 0 1 0.06497,-0.02827 c 0.09987,-0.04002 0.191568,-0.06007 0.275061,-0.06007 z m 12.332899,0 a 0.41488368,0.41646496 0 0 1 0.08784,0.009 0.28412654,0.28520941 0 0 1 0.136179,0.0694 c 0.05602,0.05219 0.109322,0.11316 0.160016,0.182785 0.01597,0.02408 0.02384,0.04684 0.02384,0.06827 a 0.03842426,0.03857071 0 0 1 -0.01265,0.02892 c -0.0096,0.0092 -0.02488,0.01632 -0.04543,0.02152 a 0.27568794,0.27673866 0 0 1 -0.02992,0.0058 c -0.07469,0.0134 -0.132038,0.04075 -0.17203,0.08224 a 0.38645468,0.38792758 0 0 0 -0.01217,0.01318 c -0.02458,0.02801 -0.05057,0.06499 -0.0781,0.110993 v 0 a 1.5935008,1.5995741 0 0 0 -0.04162,0.07469 c -0.163684,0.294753 -0.327399,0.542855 -0.491082,0.744343 a 2.6835536,2.6937816 0 0 1 -0.284973,0.303582 1.9805291,1.9880774 0 0 1 -0.211863,0.167688 c -0.07795,0.05286 -0.153915,0.09434 -0.227877,0.124167 a 0.74079355,0.74361695 0 0 1 -0.276499,0.0575 0.35966421,0.36103501 0 0 1 -0.07202,-0.0067 0.24504683,0.24598079 0 0 1 -0.129919,-0.06955 0.23472389,0.2356185 0 0 1 -0.02352,-0.02843 c -0.01955,-0.02796 -0.03354,-0.06054 -0.04176,-0.09783 a 0.40161136,0.40314203 0 0 1 -0.0085,-0.08657 0.57726515,0.57946528 0 0 1 0.0043,-0.071 c 0.01028,-0.08339 0.03813,-0.174727 0.08351,-0.27419 0.05866,-0.128517 0.135989,-0.258365 0.232034,-0.389512 a 3.0346974,3.0462636 0 0 1 0.05569,-0.07373 3.4029641,3.4159341 0 0 1 0.274413,-0.30985 3.9807208,3.9958926 0 0 1 0.06993,-0.06858 3.5202851,3.5337019 0 0 1 0.310122,-0.264713 2.4988878,2.5084119 0 0 1 0.156649,-0.10939 1.9707795,1.9782908 0 0 1 0.225284,-0.125607 1.2235957,1.2282592 0 0 1 0.06498,-0.02827 c 0.09984,-0.04002 0.191552,-0.06007 0.275061,-0.06007 z m 12.325533,0 a 0.41488368,0.41646496 0 0 1 0.08784,0.009 0.28412654,0.28520941 0 0 1 0.136195,0.0694 c 0.05597,0.05219 0.109323,0.11316 0.16,0.182785 0.01598,0.02408 0.02385,0.04684 0.02385,0.06827 a 0.03842426,0.03857071 0 0 1 -0.01265,0.02892 c -0.0097,0.0092 -0.02477,0.01632 -0.04527,0.02152 a 0.27568794,0.27673866 0 0 1 -0.03008,0.0058 c -0.07466,0.0134 -0.13199,0.04075 -0.172015,0.08224 a 0.38645468,0.38792758 0 0 0 -0.01218,0.01318 c -0.02465,0.02801 -0.05064,0.06499 -0.07809,0.110993 v 0 a 1.5935008,1.5995741 0 0 0 -0.0416,0.07469 c -0.163685,0.294753 -0.32748,0.542855 -0.491243,0.744343 a 2.6835536,2.6937816 0 0 1 -0.284845,0.303582 1.9805291,1.9880774 0 0 1 -0.211862,0.167688 c -0.07794,0.05286 -0.153915,0.09434 -0.227845,0.124167 a 0.74079355,0.74361695 0 0 1 -0.276358,0.0575 0.35966421,0.36103501 0 0 1 -0.07216,-0.0067 0.24504683,0.24598079 0 0 1 -0.12992,-0.06955 0.23472389,0.2356185 0 0 1 -0.02355,-0.02843 c -0.01958,-0.02796 -0.03357,-0.06054 -0.04174,-0.09783 a 0.40161136,0.40314203 0 0 1 -0.0087,-0.08657 0.57726515,0.57946528 0 0 1 0.0048,-0.071 c 0.01028,-0.08339 0.03819,-0.174727 0.08351,-0.27419 0.05867,-0.128517 0.13602,-0.258365 0.232033,-0.389512 a 3.0346974,3.0462636 0 0 1 0.05569,-0.07373 3.4029641,3.4159341 0 0 1 0.274285,-0.30985 3.9807208,3.9958926 0 0 1 0.07007,-0.06858 3.5202851,3.5337019 0 0 1 0.310105,-0.264713 2.4988878,2.5084119 0 0 1 0.15665,-0.10939 1.9707795,1.9782908 0 0 1 0.225315,-0.125607 1.2235957,1.2282592 0 0 1 0.06497,-0.02827 c 0.09984,-0.04002 0.191568,-0.06007 0.27506,-0.06007 z m 12.773099,0.401563 a 1.0148429,1.0187108 0 0 1 0.04192,10e-4 0.88400384,0.88737301 0 0 1 0.170103,0.0233 0.81174324,0.81483704 0 0 1 0.08289,0.02443 0.62715935,0.62954965 0 0 1 0.09313,0.04176 0.60700505,0.60931853 0 0 1 0.0092,0.0053 c 0.04627,0.02676 0.08321,0.05637 0.110745,0.08899 a 0.21694551,0.21777237 0 0 1 0.01662,0.0225 0.16246336,0.16308254 0 0 1 0.02736,0.08995 0.20514787,0.20592976 0 0 1 0,0.0069 0.15713803,0.15773693 0 0 1 -0.04383,0.10762 0.19384179,0.19458059 0 0 1 -0.104185,0.05815 11.291899,11.334936 0 0 1 -0.09168,0.01557 c -0.03229,0.0053 -0.06615,0.01055 -0.101608,0.01605 a 20.042963,20.119353 0 0 1 -0.134267,0.02055 13.013208,13.062805 0 0 1 -0.37218,0.05028 27.802779,27.908744 0 0 1 -0.17587,0.02055 20.836846,20.916262 0 0 1 -0.16,0.01753 c -0.101388,0.0107 -0.174703,0.01605 -0.220038,0.01605 a 0.24209741,0.24302013 0 0 1 -0.0171,-10e-4 c -0.04619,-0.0032 -0.07558,-0.02038 -0.08817,-0.05156 a 0.10683419,0.10724137 0 0 1 -0.0068,-0.04016 0.20178883,0.20255791 0 0 1 0.0084,-0.05782 c 0.0068,-0.0233 0.01778,-0.04667 0.03312,-0.07019 a 0.42233918,0.42394886 0 0 1 0.04639,-0.05879 0.68475475,0.68736455 0 0 1 0.0059,-0.0063 c 0.05785,-0.06048 0.13188,-0.11597 0.222122,-0.166415 a 1.2874176,1.2923243 0 0 1 0.100155,-0.05027 1.5095246,1.5152778 0 0 1 0.211863,-0.07614 1.4017072,1.4070496 0 0 1 0.06416,-0.0164 1.2166318,1.2212687 0 0 1 0.271868,-0.0318 z m 14.317414,1.473737 a 0.90743524,0.91089374 0 0 0 -0.04514,10e-4 c -0.128497,0.0064 -0.232777,0.04084 -0.312982,0.103283 -0.08928,0.06963 -0.13392,0.160772 -0.13392,0.27322 a 0.39702343,0.39853658 0 0 0 0.0419,0.180707 0.44257541,0.44426221 0 0 0 0.118112,0.146495 c 0.05068,0.0415 0.109908,0.07423 0.177925,0.0983 a 0.60962673,0.61195018 0 0 0 0.04208,0.01333 v 0 a 0.66402697,0.6665578 0 0 0 0.176013,0.02282 c 0.072,0 0.136462,-0.0081 0.19348,-0.02457 a 0.43348138,0.43513351 0 0 0 0.148492,-0.07373 0.31116279,0.31234871 0 0 0 0.10831,-0.15356 0.39325468,0.39475351 0 0 0 0.01752,-0.12159 0.37432934,0.37575601 0 0 0 -0.044,-0.176693 0.50312025,0.5050378 0 0 0 -0.11808,-0.148577 0.56219038,0.56433308 0 0 0 -0.0048,-0.004 0.59012785,0.59237703 0 0 0 -0.165122,-0.09831 0.5385951,0.54064785 0 0 0 -0.20004,-0.03822 z" />
</svg>
